<?xml version="1.0" encoding="UTF-8"?>
<svg xmlns="http://www.w3.org/2000/svg" xmlns:xlink="http://www.w3.org/1999/xlink" viewBox="0 0 33.95 25.53">
  <defs>
    <style>
      .cls-1 {
        fill: url(#radial-gradient-4);
      }

      .cls-2 {
        fill: url(#radial-gradient-3);
      }

      .cls-3 {
        fill: url(#radial-gradient-2);
      }

      .cls-4 {
        fill: url(#linear-gradient-7);
      }

      .cls-5 {
        fill: url(#linear-gradient-6);
      }

      .cls-6 {
        fill: url(#linear-gradient-4);
      }

      .cls-7 {
        fill: url(#linear-gradient-3);
      }

      .cls-8 {
        fill: url(#linear-gradient-2);
      }

      .cls-9, .cls-10, .cls-11, .cls-12, .cls-13, .cls-14, .cls-15 {
        mix-blend-mode: overlay;
      }

      .cls-9, .cls-16 {
        fill: #fff;
      }

      .cls-17 {
        fill: url(#radial-gradient);
      }

      .cls-10 {
        fill: #1a1a1a;
        opacity: .37;
      }

      .cls-18 {
        fill: #294c87;
      }

      .cls-19 {
        fill: url(#linear-gradient);
      }

      .cls-20 {
        isolation: isolate;
      }

      .cls-11 {
        fill: url(#linear-gradient-8);
      }

      .cls-12 {
        fill: url(#linear-gradient-9);
      }

      .cls-13 {
        fill: url(#linear-gradient-5);
      }

      .cls-21 {
        fill: #f4fcff;
      }

      .cls-14 {
        fill: url(#linear-gradient-12);
      }

      .cls-15 {
        fill: url(#linear-gradient-19);
      }

      .cls-22 {
        fill: url(#linear-gradient-14);
      }

      .cls-22, .cls-23 {
        opacity: .64;
      }

      .cls-23 {
        fill: url(#linear-gradient-16);
      }

      .cls-24 {
        fill: url(#linear-gradient-10);
      }

      .cls-25 {
        fill: url(#linear-gradient-11);
      }

      .cls-26 {
        fill: url(#linear-gradient-13);
      }

      .cls-27 {
        fill: url(#linear-gradient-15);
      }

      .cls-28 {
        fill: url(#linear-gradient-17);
      }

      .cls-29 {
        fill: url(#linear-gradient-18);
      }

      .cls-30 {
        fill: none;
        stroke: #294c87;
        stroke-linecap: round;
        stroke-linejoin: round;
        stroke-width: .25px;
      }
    </style>
    <linearGradient id="linear-gradient" x1="28.52" y1="19.97" x2="32.6" y2="22" gradientUnits="userSpaceOnUse">
      <stop offset="0" stop-color="#f2b51d"/>
      <stop offset=".04" stop-color="#f2b923"/>
      <stop offset=".1" stop-color="#f5c436"/>
      <stop offset=".17" stop-color="#f9d754"/>
      <stop offset=".24" stop-color="#fef07e"/>
      <stop offset=".24" stop-color="#fff280"/>
      <stop offset=".32" stop-color="#ffec79"/>
      <stop offset=".44" stop-color="#fd6"/>
      <stop offset=".51" stop-color="#ffd057"/>
      <stop offset=".58" stop-color="#ffc950"/>
      <stop offset=".67" stop-color="#ffb63d"/>
      <stop offset=".77" stop-color="#ff981f"/>
      <stop offset=".82" stop-color="#ff880f"/>
      <stop offset=".87" stop-color="#fd8e11"/>
      <stop offset=".94" stop-color="#f7a116"/>
      <stop offset="1" stop-color="#f2b51d"/>
    </linearGradient>
    <linearGradient id="linear-gradient-2" x1="30.14" y1="9.09" x2="32.9" y2="10.46" xlink:href="#linear-gradient"/>
    <linearGradient id="linear-gradient-3" x1="7.86" y1="18.68" x2="9.55" y2="19.52" xlink:href="#linear-gradient"/>
    <linearGradient id="linear-gradient-4" x1="28.46" y1="2.05" x2="22.33" y2="21.41" gradientUnits="userSpaceOnUse">
      <stop offset="0" stop-color="#a1eff8"/>
      <stop offset=".15" stop-color="#9be8f6"/>
      <stop offset=".37" stop-color="#8cd5f3"/>
      <stop offset=".63" stop-color="#72b7ee"/>
      <stop offset=".91" stop-color="#508de6"/>
      <stop offset="1" stop-color="#447fe4"/>
    </linearGradient>
    <linearGradient id="linear-gradient-5" x1="28.9" y1="12.67" x2="23.29" y2="15.75" gradientUnits="userSpaceOnUse">
      <stop offset=".23" stop-color="#fff"/>
      <stop offset=".63" stop-color="#fff" stop-opacity="0"/>
    </linearGradient>
    <linearGradient id="linear-gradient-6" x1="23.72" y1="1.23" x2="17.85" y2="19.76" xlink:href="#linear-gradient-4"/>
    <linearGradient id="linear-gradient-7" x1="23.58" y1="1.75" x2="17.88" y2="19.75" xlink:href="#linear-gradient-4"/>
    <linearGradient id="linear-gradient-8" x1="11.16" y1="26.99" x2="20.99" y2="15.24" gradientUnits="userSpaceOnUse">
      <stop offset=".23" stop-color="#fff"/>
      <stop offset=".75" stop-color="#fff" stop-opacity="0"/>
    </linearGradient>
    <radialGradient id="radial-gradient" cx="11.2" cy="24.67" fx="11.2" fy="24.67" r="3.54" gradientUnits="userSpaceOnUse">
      <stop offset="0" stop-color="#ffc07d"/>
      <stop offset=".12" stop-color="#fec67e" stop-opacity=".98"/>
      <stop offset=".28" stop-color="#fcd781" stop-opacity=".91"/>
      <stop offset=".47" stop-color="#f9f485" stop-opacity=".8"/>
      <stop offset=".47" stop-color="#f9f586" stop-opacity=".8"/>
      <stop offset=".51" stop-color="#f9f589" stop-opacity=".76"/>
      <stop offset=".57" stop-color="#f9f591" stop-opacity=".66"/>
      <stop offset=".65" stop-color="#f9f59e" stop-opacity=".49"/>
      <stop offset=".74" stop-color="#f9f6b0" stop-opacity=".26"/>
      <stop offset=".83" stop-color="#f9f7c5" stop-opacity="0"/>
    </radialGradient>
    <linearGradient id="linear-gradient-9" x1="15.14" y1="27.48" x2="18.76" y2="17.29" gradientUnits="userSpaceOnUse">
      <stop offset=".23" stop-color="#fff"/>
      <stop offset=".27" stop-color="#fff" stop-opacity=".9"/>
      <stop offset=".36" stop-color="#fff" stop-opacity=".66"/>
      <stop offset=".45" stop-color="#fff" stop-opacity=".46"/>
      <stop offset=".53" stop-color="#fff" stop-opacity=".3"/>
      <stop offset=".62" stop-color="#fff" stop-opacity=".17"/>
      <stop offset=".7" stop-color="#fff" stop-opacity=".07"/>
      <stop offset=".77" stop-color="#fff" stop-opacity=".02"/>
      <stop offset=".84" stop-color="#fff" stop-opacity="0"/>
    </linearGradient>
    <radialGradient id="radial-gradient-2" cx="19.71" cy="18.18" fx="19.71" fy="18.18" r="5.46" gradientUnits="userSpaceOnUse">
      <stop offset="0" stop-color="#ffc07d"/>
      <stop offset=".07" stop-color="#fec37d" stop-opacity=".93"/>
      <stop offset=".21" stop-color="#fdce7f" stop-opacity=".76"/>
      <stop offset=".4" stop-color="#fbde82" stop-opacity=".48"/>
      <stop offset=".63" stop-color="#f9f586" stop-opacity=".1"/>
      <stop offset=".78" stop-color="#f9f595" stop-opacity=".08"/>
      <stop offset=".98" stop-color="#f9f6c0" stop-opacity="0"/>
      <stop offset="1" stop-color="#f9f7c5" stop-opacity="0"/>
    </radialGradient>
    <linearGradient id="linear-gradient-10" x1="22.73" y1="1.3" x2="16.85" y2="19.85" xlink:href="#linear-gradient-4"/>
    <linearGradient id="linear-gradient-11" x1="22.66" y1="1.46" x2="16.96" y2="19.45" xlink:href="#linear-gradient-4"/>
    <radialGradient id="radial-gradient-3" cx="20.24" cy="8.79" fx="20.24" fy="8.79" r="9.1" xlink:href="#radial-gradient"/>
    <linearGradient id="linear-gradient-12" x1="20.31" y1="1.24" x2="20.72" y2="14.35" xlink:href="#linear-gradient-5"/>
    <linearGradient id="linear-gradient-13" x1="18.33" y1="6.76" x2="17.24" y2="10.08" gradientTransform="translate(22.5 -10.59) rotate(78.32)" gradientUnits="userSpaceOnUse">
      <stop offset=".12" stop-color="#131311"/>
      <stop offset=".23" stop-color="#13151a"/>
      <stop offset=".43" stop-color="#141c34"/>
      <stop offset=".68" stop-color="#16285e"/>
      <stop offset=".97" stop-color="#183898"/>
      <stop offset="1" stop-color="#193a9e"/>
    </linearGradient>
    <linearGradient id="linear-gradient-14" x1="18.31" y1="5.59" x2="17.55" y2="9.58" gradientTransform="translate(22.5 -10.59) rotate(78.32)" gradientUnits="userSpaceOnUse">
      <stop offset=".23" stop-color="#fff"/>
      <stop offset=".31" stop-color="#fff" stop-opacity=".81"/>
      <stop offset=".42" stop-color="#fff" stop-opacity=".57"/>
      <stop offset=".53" stop-color="#fff" stop-opacity=".37"/>
      <stop offset=".63" stop-color="#fff" stop-opacity=".21"/>
      <stop offset=".73" stop-color="#fff" stop-opacity=".09"/>
      <stop offset=".81" stop-color="#fff" stop-opacity=".02"/>
      <stop offset=".87" stop-color="#fff" stop-opacity="0"/>
    </linearGradient>
    <linearGradient id="linear-gradient-15" x1="-244.07" y1="6.95" x2="-245.16" y2="10.24" gradientTransform="translate(-216.12 -38.35) rotate(-170.96) scale(1 -1)" xlink:href="#linear-gradient-13"/>
    <linearGradient id="linear-gradient-16" x1="-244.09" y1="5.78" x2="-244.85" y2="9.75" gradientTransform="translate(-216.12 -38.35) rotate(-170.96) scale(1 -1)" xlink:href="#linear-gradient-14"/>
    <linearGradient id="linear-gradient-17" x1="17.59" y1="-1.34" x2="11.46" y2="18.01" xlink:href="#linear-gradient-4"/>
    <linearGradient id="linear-gradient-18" x1="17.64" y1="-.13" x2="11.94" y2="17.86" xlink:href="#linear-gradient-4"/>
    <linearGradient id="linear-gradient-19" x1="9.49" y1="11.23" x2="13.2" y2="14.65" gradientUnits="userSpaceOnUse">
      <stop offset=".23" stop-color="#fff"/>
      <stop offset=".25" stop-color="#fff" stop-opacity=".97"/>
      <stop offset=".41" stop-color="#fff" stop-opacity=".68"/>
      <stop offset=".57" stop-color="#fff" stop-opacity=".44"/>
      <stop offset=".71" stop-color="#fff" stop-opacity=".25"/>
      <stop offset=".83" stop-color="#fff" stop-opacity=".11"/>
      <stop offset=".93" stop-color="#fff" stop-opacity=".03"/>
      <stop offset="1" stop-color="#fff" stop-opacity="0"/>
    </linearGradient>
    <radialGradient id="radial-gradient-4" cx="6" cy="2.34" fx="6" fy="2.34" r="10.86" gradientUnits="userSpaceOnUse">
      <stop offset=".01" stop-color="#fbefe3"/>
      <stop offset=".06" stop-color="#efebe4" stop-opacity=".92"/>
      <stop offset=".2" stop-color="#cee2e8" stop-opacity=".7"/>
      <stop offset=".33" stop-color="#b4dbeb" stop-opacity=".53"/>
      <stop offset=".44" stop-color="#a2d6ed" stop-opacity=".4"/>
      <stop offset=".53" stop-color="#97d3ee" stop-opacity=".33"/>
      <stop offset=".59" stop-color="#93d2ef" stop-opacity=".3"/>
      <stop offset=".62" stop-color="#93d2ef" stop-opacity=".33"/>
      <stop offset=".68" stop-color="#93d2ef" stop-opacity=".41"/>
      <stop offset=".73" stop-color="#93d2ef" stop-opacity=".53"/>
      <stop offset=".8" stop-color="#93d2ef" stop-opacity=".71"/>
      <stop offset=".87" stop-color="#93d2ef" stop-opacity=".93"/>
      <stop offset=".89" stop-color="#93d2ef"/>
    </radialGradient>
  </defs>
  <g class="cls-20">
    <g id="Layer_2" data-name="Layer 2">
      <g id="Layer_1-2" data-name="Layer 1">
        <g>
          <g>
            <path class="cls-19" d="M33.95,21.15c-2.29.42-2.64.76-3.06,3.06-.42-2.29-.76-2.64-3.06-3.06,2.29-.42,2.64-.76,3.06-3.06.42,2.29.76,2.64,3.06,3.06Z"/>
            <path class="cls-8" d="M33.82,9.89c-1.55.29-1.78.52-2.07,2.07-.29-1.55-.52-1.78-2.07-2.07,1.55-.29,1.78-.52,2.07-2.07.29,1.55.52,1.78,2.07,2.07Z"/>
            <path class="cls-7" d="M10.11,19.17c-.95.17-1.09.32-1.26,1.26-.17-.95-.32-1.09-1.26-1.26.95-.17,1.09-.32,1.26-1.26.17.95.32,1.09,1.26,1.26Z"/>
          </g>
          <g>
            <g>
              <g>
                <path class="cls-6" d="M24.29,17.88c-.07,0-.15-.01-.23-.02-1.42-.17-2.63-1.44-3.04-2.55-.27-.74-.2-1.38.2-1.81.55-.59,2.15-1.17,3.72-1.35.29-.03.58-.05.86-.05,1.3,0,2.15.37,2.46,1.06.01.03.02.07.02.1.07.1.11.3.11.57-.02,1.11-1.2,2.18-2.19,2.89-.91.67-1.78,1.12-1.82,1.14-.03.02-.07.02-.1.02Z"/>
                <path class="cls-18" d="M25.81,12.32c1.05,0,1.96.25,2.26.93h0c.08.18.11.36.11.58-.02.97-1.08,1.98-2.1,2.71-.91.67-1.79,1.12-1.79,1.12-.06,0-.13-.01-.19-.02-1.99-.24-3.73-2.89-2.71-3.99.5-.54,2.07-1.11,3.58-1.28.29-.03.57-.05.84-.05M25.81,11.88h0c-.28,0-.58.02-.89.05-1.62.18-3.28.79-3.86,1.42-.45.49-.54,1.23-.24,2.03.43,1.17,1.7,2.51,3.22,2.69.06.01.16.02.24.02.07,0,.14-.02.2-.05.04-.02.92-.47,1.85-1.16,1.02-.73,2.25-1.86,2.28-3.05,0-.28-.04-.51-.13-.72,0-.02-.01-.04-.02-.05-.24-.54-.9-1.19-2.66-1.19h0Z"/>
              </g>
              <path class="cls-10" d="M28.07,13.25c-.57-.2-1.23-.23-1.91.19-1.51.94-1.4,2.88-.08,3.1-.91.67-1.79,1.12-1.79,1.12-2.07-.09-3.95-2.87-2.9-4.01.96-1.03,5.88-2.18,6.68-.4Z"/>
              <path class="cls-13" d="M28.18,13.83c-.02.97-1.08,1.98-2.1,2.71-.91.67-1.79,1.12-1.79,1.12-.06,0-.13-.01-.19-.02.09-.08.2-.16.33-.23,1.35-.78,3.82-2.81,3.38-4.03-.45-1.22-2.89-.85-2.89-.85l.05-.16c1.39-.15,2.72.03,3.1.88h0c.08.18.11.36.11.58Z"/>
            </g>
            <g>
              <g>
                <path class="cls-5" d="M12.29,25.31c-.12,0-.24-.02-.37-.06-.34-.11-.57-.4-.68-.84-.23-.92.14-2.22.82-2.9.32-.32.26-.73.11-1.49-.18-.96-.44-2.27.32-4.06,1.32-3.11,4.75-4.68,4.9-4.74.03-.01.06-.02.09-.02.02,0,.04,0,.06,0l6.08,1.66c.07.02.12.07.15.13.1.24,2.39,5.89-.46,8.69-2.28,2.24-5.81,2.4-7.71,2.49-.47.02-.83.04-1.06.08-.49.09-.84.34-1.17.58-.34.25-.66.48-1.08.48Z"/>
                <path class="cls-18" d="M17.48,11.42l6.08,1.66s2.37,5.73-.41,8.45-7.45,2.3-8.65,2.51c-1.06.19-1.49,1.06-2.21,1.06-.09,0-.19-.01-.3-.05-.92-.29-.72-2.42.23-3.38.95-.95-.82-2.56.48-5.62,1.3-3.07,4.79-4.63,4.79-4.63M17.48,10.98c-.06,0-.12.01-.18.04-.15.07-3.66,1.67-5.01,4.86-.79,1.85-.53,3.2-.34,4.19.15.76.18,1.06-.05,1.29-.73.73-1.12,2.12-.88,3.11.13.51.42.87.83,1,.14.05.29.07.43.07.49,0,.86-.27,1.21-.53.31-.23.63-.46,1.08-.54.21-.04.59-.06,1.03-.08,1.93-.09,5.51-.26,7.85-2.55,2.96-2.9.61-8.69.51-8.93-.05-.13-.16-.22-.29-.26l-6.08-1.66s-.08-.02-.12-.02h0Z"/>
              </g>
              <path class="cls-4" d="M24.74,16.84c0,1.65-.36,3.47-1.59,4.68-2.58,2.54-6.81,2.34-8.35,2.48-.11,0-.22.01-.3.03-1.18.22-1.59,1.27-2.47,1.02-.01,0-.03,0-.04,0-.92-.28-.73-2.42.22-3.37.21-.21.28-.45.29-.73.03-.93-.73-2.32.03-4.47.04-.14.1-.28.16-.42,1.3-3.07,4.79-4.63,4.79-4.63l6.73,1.48s.34,1.17.48,2.7v.05c.03.38.05.78.05,1.19Z"/>
              <path class="cls-11" d="M24.74,16.84c0,1.65-.36,3.47-1.59,4.68-2.58,2.54-6.81,2.34-8.35,2.48-.11,0-.22.01-.3.03-1.18.22-1.59,1.27-2.47,1.02-.01,0-.03,0-.04,0-.92-.28-.73-2.42.22-3.37.21-.21.28-.45.29-.73.03-.93-.73-2.32.03-4.47l.13.03s-.48,1.26.03,3.14c.51,1.89-.18,2.21-.73,3.02-.56.8-.32,1.89.24,1.98.56.1.89-.63,1.89-.9,1-.27,5.63.03,7.91-1.67,2.15-1.6,2.73-4.75,2.69-6.42.03.38.05.78.05,1.19Z"/>
              <path class="cls-17" d="M14.8,24c-.11,0-.22.01-.3.03-1.2.22-1.6,1.3-2.51,1.01-.92-.28-.73-2.42.22-3.37.21-.21.28-.45.29-.73.98.55,2.06,1.5,2.3,3.06Z"/>
              <path class="cls-12" d="M13.01,17s-.52.59,0,2.3.04,2.52-.5,3.12-.79,1.12-.47,1.53,1.24-.18,2.09-.45,6.17.17,8.47-2.06,1.68-5.83,1.68-5.83"/>
              <path class="cls-3" d="M18.49,22.5s3.89,0,5.13-3.09.21-5.47-3.62-5.55-4.81,1.96-4.68,5.17,3.17,3.47,3.17,3.47Z"/>
              <path class="cls-10" d="M24.74,16.84c-.4-.88-1.43-2.44-3.08-2.72-3.04-.52-5.65-.06-6.35,5.06-.44,3.19-3.16,3.09-3.5,4.69-.1.47.01.86.22,1.18-.01,0-.03,0-.04,0-.92-.28-.73-2.42.22-3.37.21-.21.28-.45.29-.73.03-.99-.83-2.5.19-4.89,1.3-3.07,4.79-4.63,4.79-4.63l6.73,1.48s.54,1.84.53,3.94Z"/>
            </g>
            <g>
              <path class="cls-24" d="M20.3,13.59c-4.42,0-7.24-1.75-7.75-4.81-.4-2.45,1.07-4.11,1.78-4.91.15-.17.26-.29.32-.38.08-.13.15-.47.23-.83.19-.93.46-2.19,1.34-2.4.09-.02.19-.03.28-.03.87,0,1.48.94,1.7,1.34.66-.19,1.38-.29,2.14-.29,1.51,0,2.76.38,3.18.53.53-.63,1.54-1.12,2.33-1.12.47,0,.81.18.95.51.16.37.16.81.15,1.28,0,.64-.02,1.37.42,2.06,1.28,2.02,1.6,4.2.87,5.82-.69,1.55-2.32,2.57-4.7,2.96-1.12.19-2.21.28-3.23.28h0Z"/>
              <path class="cls-18" d="M16.48.44c.95,0,1.59,1.38,1.59,1.38.76-.25,1.53-.34,2.25-.34,1.81,0,3.26.57,3.26.57.48-.66,1.52-1.16,2.26-1.16.35,0,.63.11.75.37.36.81-.21,2.11.58,3.37,1.93,3.06,2.15,7.49-3.67,8.45-1.11.18-2.18.28-3.19.28-4,0-7.01-1.46-7.53-4.63-.47-2.87,1.75-4.61,2.07-5.14s.35-2.88,1.42-3.13c.08-.02.15-.03.23-.03M16.48,0h0s0,0,0,0c-.11,0-.22.01-.33.04-1.01.24-1.29,1.58-1.5,2.57-.06.3-.14.66-.2.77-.04.06-.17.21-.29.35-.73.82-2.25,2.54-1.83,5.09.52,3.17,3.43,4.99,7.97,4.99,1.03,0,2.13-.09,3.26-.28,3.1-.51,4.35-1.96,4.86-3.09.76-1.69.43-3.95-.89-6.03-.4-.64-.39-1.3-.38-1.94,0-.49.01-.95-.17-1.37-.11-.24-.4-.64-1.15-.64-.81,0-1.8.46-2.4,1.08-.53-.17-1.72-.49-3.12-.49-.72,0-1.4.08-2.03.25-.29-.49-.91-1.3-1.8-1.3h0Z"/>
            </g>
            <path class="cls-25" d="M28.35,8.33c.02,1.55-.63,3.06-2.32,4.16-.74.48-1.68.88-2.86,1.17-4.99,1.22-9.05-.62-10.17-4.01-.1-.29-.18-.59-.23-.91-.48-2.87,1.74-4.61,2.06-5.14.32-.53.35-2.88,1.42-3.13.07-.02.13-.03.2-.03.97-.02,1.62,1.39,1.62,1.39,2.69-.88,5.5.23,5.5.23.71-.98,2.65-1.59,3.01-.78s-.21,2.11.58,3.36c.71,1.12,1.17,2.41,1.19,3.69Z"/>
            <path class="cls-2" d="M19.25,5.33c.39.64,1.57,2.25,3.53,1.14s4.15-.94,3.81,1.77-2.87,5.11-6.73,4.56c-4.69-.66-5.65-3.61-5.22-5.7s3.23-4.03,4.61-1.78Z"/>
            <path class="cls-10" d="M28.35,8.33c.03,2.23-1.32,4.38-5.18,5.33-5.42,1.33-9.75-.96-10.4-4.92-.48-2.87,1.74-4.61,2.06-5.14.32-.53.35-2.88,1.42-3.13.07-.02.13-.03.2-.03-.05.04-.09.08-.12.13-.43.7-.16,2.07.07,2.51.22.43-2.54,2.61-1.68,6.04s6.26,4.6,10.04,2.91c2.4-1.07,3.28-2.68,3.59-3.7Z"/>
            <path class="cls-14" d="M28.35,8.33c.02,1.55-.63,3.06-2.32,4.16.57-.52,1.82-1.87,1.94-3.74.16-2.42-1.28-3.73-1.56-4.68-.27-.95.27-2.41-.49-2.74-.75-.33-2,1.42-2,1.42,0,0-.74-.68-2.63-.83-1.9-.15-3.39.37-3.44.32-.05-.05-.73-1.64-1.47-1.5-.73.14-1.07,2.42-1.07,2.79s-2.07,1.84-2.39,3.85c-.12.78-.05,1.58.08,2.27-.1-.29-.18-.59-.23-.91-.48-2.87,1.74-4.61,2.06-5.14.32-.53.35-2.88,1.42-3.13.07-.02.13-.03.2-.03.97-.02,1.62,1.39,1.62,1.39,2.69-.88,5.5.23,5.5.23.71-.98,2.65-1.59,3.01-.78s-.21,2.11.58,3.36c.71,1.12,1.17,2.41,1.19,3.69Z"/>
            <g>
              <g>
                <ellipse class="cls-26" cx="17.75" cy="8.52" rx="1.59" ry="1.18" transform="translate(5.82 24.18) rotate(-78.32)"/>
                <ellipse class="cls-22" cx="17.75" cy="8.52" rx="1.42" ry="1.05" transform="translate(5.82 24.18) rotate(-78.32)"/>
                <ellipse class="cls-16" cx="17.74" cy="7.63" rx=".51" ry=".49"/>
                <ellipse class="cls-16" cx="18.04" cy="8.42" rx=".18" ry=".18"/>
              </g>
              <g>
                <ellipse class="cls-27" cx="24.12" cy="8.69" rx="1.09" ry="1.58" transform="translate(-1.07 3.9) rotate(-9.04)"/>
                <ellipse class="cls-23" cx="24.12" cy="8.69" rx=".97" ry="1.41" transform="translate(-1.07 3.9) rotate(-9.04)"/>
                <ellipse class="cls-16" cx="24.13" cy="7.8" rx=".47" ry=".49"/>
                <ellipse class="cls-16" cx="23.86" cy="8.6" rx=".17" ry=".18"/>
              </g>
              <path class="cls-30" d="M19.73,10.17s.93.78,2.15.13"/>
            </g>
            <g>
              <g>
                <path class="cls-28" d="M13.45,17.64c-.18,0-.35-.04-.52-.11-1.14-.49-3.21-3.52-3.13-5.39.03-.75.39-1.27,1.05-1.49.18-.06.37-.09.58-.09,1.86,0,4.44,2.42,4.55,2.53.03.03.05.06.06.09.3.98.02,2.27-.72,3.27-.55.75-1.23,1.18-1.86,1.18h0Z"/>
                <path class="cls-18" d="M11.42,10.79c1.79,0,4.4,2.46,4.4,2.46.55,1.79-1.02,4.17-2.37,4.17-.15,0-.29-.03-.43-.09-1.42-.61-4.54-5.64-2.1-6.46.16-.05.33-.08.51-.08M11.42,10.35c-.23,0-.45.03-.65.1-.74.25-1.17.85-1.2,1.69-.08,2,2.07,5.08,3.27,5.6.19.08.39.12.6.12.7,0,1.44-.46,2.04-1.27.62-.84,1.15-2.2.76-3.47-.02-.07-.06-.14-.12-.19-.11-.11-2.76-2.58-4.7-2.58h0Z"/>
              </g>
              <path class="cls-29" d="M13.25,17.8c-.29-.13-.66-.45-1.05-.91-1.44-1.68-3.09-5.07-1.5-5.92.06-.03.13-.06.21-.09,1.76-.6,5.83,2.39,5.83,2.39.61,1.98-2.07,5.14-3.49,4.53Z"/>
              <path class="cls-10" d="M13.25,17.8c-.29-.13-.66-.45-1.05-.91.95.58,1.84.61,2.55-.33.95-1.25.32-3.7-2.1-5.06-.79-.44-1.43-.57-1.95-.53.06-.03.13-.06.21-.09,1.76-.6,5.83,2.39,5.83,2.39.61,1.98-2.07,5.14-3.49,4.53Z"/>
            </g>
            <path class="cls-15" d="M14.54,13.63s-2.15-2.64-3.53-2.44-.44,3.55,1.1,4.85,2.66-.51,2.66-.51"/>
          </g>
        </g>
        <g>
          <g>
            <circle class="cls-1" cx="5.64" cy="7.21" r="5.43"/>
            <path class="cls-21" d="M11.11,7.21c.1,2.95-2.35,5.93-5.47,5.75C.85,12.83-1.91,6.53,1.54,3.12c3.6-3.75,9.71-1.01,9.56,4.09h0ZM11.03,7.21c-.37-6.61-10.19-6.67-10.61,0-.17,6.96,10.39,6.57,10.61,0h0Z"/>
          </g>
          <ellipse class="cls-9" cx="5.66" cy="4.15" rx="1.71" ry="1.27"/>
          <ellipse class="cls-9" cx="7.5" cy="5.92" rx=".64" ry=".47"/>
        </g>
      </g>
    </g>
  </g>
</svg>