<?xml version="1.0" encoding="UTF-8"?>
<svg xmlns="http://www.w3.org/2000/svg" xmlns:xlink="http://www.w3.org/1999/xlink" viewBox="0 0 62.58 44.24">
  <defs>
    <style>
      .cls-1 {
        fill: url(#linear-gradient-3);
      }

      .cls-2 {
        fill: url(#linear-gradient-2);
      }

      .cls-3 {
        fill: url(#radial-gradient);
      }

      .cls-4 {
        fill: url(#linear-gradient);
      }

      .cls-5 {
        fill: #7a3f1a;
      }

      .cls-6 {
        isolation: isolate;
      }

      .cls-7 {
        fill: none;
        stroke: #fff;
        stroke-miterlimit: 10;
        stroke-width: .94px;
      }

      .cls-8 {
        mix-blend-mode: overlay;
      }

      .cls-9 {
        fill: #fff1d1;
      }
    </style>
    <linearGradient id="linear-gradient" x1="5.31" y1="22.41" x2="62.35" y2="22.41" gradientUnits="userSpaceOnUse">
      <stop offset="0" stop-color="#ffb33b"/>
      <stop offset=".04" stop-color="#ffb641"/>
      <stop offset=".11" stop-color="#ffc254"/>
      <stop offset=".18" stop-color="#ffd472"/>
      <stop offset=".23" stop-color="#ffe48c"/>
      <stop offset=".45" stop-color="#ffce67"/>
      <stop offset=".69" stop-color="#ffb33b"/>
      <stop offset=".84" stop-color="#ffad34"/>
      <stop offset="1" stop-color="#ffa327"/>
    </linearGradient>
    <linearGradient id="linear-gradient-2" x1="3.73" y1="15.56" x2="7.01" y2="15.56" xlink:href="#linear-gradient"/>
    <linearGradient id="linear-gradient-3" x1="1.63" y1="35.6" x2="8.08" y2="38.8" gradientUnits="userSpaceOnUse">
      <stop offset="0" stop-color="#ffd66f"/>
      <stop offset=".24" stop-color="#f7e2ab"/>
      <stop offset=".34" stop-color="#f7e0a4"/>
      <stop offset=".48" stop-color="#fadc91"/>
      <stop offset=".65" stop-color="#fdd673"/>
      <stop offset=".7" stop-color="#ffd469"/>
      <stop offset=".99" stop-color="#ffd56f"/>
      <stop offset="1" stop-color="#ffd670"/>
    </linearGradient>
    <radialGradient id="radial-gradient" cx="5.39" cy="37.46" fx="5.39" fy="37.46" r="6.12" gradientUnits="userSpaceOnUse">
      <stop offset="0" stop-color="#fa7c20"/>
      <stop offset=".05" stop-color="#fa7f26"/>
      <stop offset=".13" stop-color="#fb8a39"/>
      <stop offset=".22" stop-color="#fc9c57"/>
      <stop offset=".32" stop-color="#feb581"/>
      <stop offset=".34" stop-color="#ffbc8c"/>
      <stop offset=".51" stop-color="#ffb71f"/>
      <stop offset=".53" stop-color="#ffb725"/>
      <stop offset=".57" stop-color="#ffb838"/>
      <stop offset=".61" stop-color="#ffb956"/>
      <stop offset=".65" stop-color="#ffbb80"/>
      <stop offset=".66" stop-color="#ffbc8c"/>
      <stop offset=".69" stop-color="#ffb885"/>
      <stop offset=".72" stop-color="#ffad72"/>
      <stop offset=".76" stop-color="#ff9b54"/>
      <stop offset=".81" stop-color="#ff832a"/>
      <stop offset=".81" stop-color="#ff7e21"/>
    </radialGradient>
  </defs>
  <g class="cls-6">
    <g id="Layer_2" data-name="Layer 2">
      <g id="Layer_1-2" data-name="Layer 1">
        <g>
          <g>
            <path class="cls-4" d="M35.05,34.23c-.89,0-1.61-.7-1.64-1.58v-.02s0,.01,0,.02c-.05.87-.77,1.55-1.64,1.55,0,0-.09,0-.09,0-1.14-.06-2.29-.18-3.42-.36-.43-.07-.81-.3-1.07-.65-.26-.35-.37-.79-.3-1.22,0,0,0-.01,0-.02,0,0,0,.02,0,.02-.18.73-.84,1.24-1.59,1.24-.14,0-.27-.02-.4-.05-1.12-.29-2.23-.63-3.29-1.02-.41-.15-.74-.45-.92-.85-.18-.4-.2-.84-.05-1.25,0-.02.02-.04.02-.06,0,.02-.02.04-.03.06-.28.56-.84.91-1.47.91-.25,0-.5-.06-.73-.17-1.05-.52-2.07-1.1-3.02-1.72-.37-.24-.62-.61-.71-1.04-.09-.43,0-.87.23-1.23,0-.01.02-.03.03-.04-.01.01-.02.03-.03.04-.31.36-.76.57-1.24.57-.39,0-.77-.14-1.07-.4-.91-.78-1.75-1.62-2.5-2.48-.59-.68-.52-1.72.17-2.31,0,0,.02-.01.03-.02-.01,0-.02.01-.03.02-.26.16-.55.24-.85.24-.58,0-1.1-.29-1.4-.79-.63-1.03-1.16-2.12-1.57-3.22-.32-.85.11-1.79.96-2.11,0,0,.02,0,.03-.01-.01,0-.02,0-.03,0-.08.01-.17.02-.26.02-.81,0-1.49-.58-1.62-1.39-.14-.88-.21-1.79-.21-2.68,0-.44.17-.85.48-1.16.31-.31.72-.48,1.16-.48.91,0,1.64.74,1.64,1.64,0,.73.06,1.46.17,2.18.07.43-.04.87-.3,1.22-.2.27-.46.47-.77.58.09-.02.19-.02.28-.02.68,0,1.3.43,1.54,1.07.34.91.78,1.8,1.3,2.67.23.37.3.81.19,1.24-.08.35-.27.65-.54.87.26-.17.57-.26.88-.26.48,0,.93.21,1.24.57.65.75,1.37,1.46,2.16,2.14.33.29.53.68.57,1.12.03.38-.07.75-.29,1.05.31-.38.78-.61,1.27-.61.32,0,.63.09.9.27.84.55,1.74,1.06,2.68,1.53.39.19.69.53.83.95.13.38.11.78-.04,1.15.26-.58.85-.97,1.5-.97.19,0,.38.03.57.1.96.35,1.96.66,2.97.92.42.11.78.37,1.01.75.2.34.27.73.21,1.11.17-.73.84-1.26,1.59-1.26.08,0,.17,0,.25.02,1.02.16,2.07.26,3.11.32.44.03.84.22,1.13.55.26.29.41.66.42,1.05.02-.39.17-.75.44-1.04.3-.32.71-.5,1.14-.52,1.04-.04,2.09-.12,3.12-.25.07,0,.13-.01.2-.01.79,0,1.46.56,1.62,1.31-.06-.39.02-.78.23-1.12.23-.37.6-.63,1.03-.72,1.01-.23,2.02-.51,3-.84.17-.06.34-.09.52-.09.66,0,1.25.39,1.51.99-.13-.36-.13-.76,0-1.13.15-.41.46-.74.85-.92.95-.44,1.87-.92,2.73-1.45.26-.16.55-.24.85-.24.52,0,1,.24,1.31.66-.45-.7-.31-1.64.35-2.17.8-.64,1.56-1.34,2.24-2.06.31-.33.75-.52,1.2-.52.35,0,.68.11.96.31-.61-.53-.74-1.45-.28-2.14.56-.84,1.05-1.72,1.43-2.61.26-.6.85-.99,1.5-.99.12,0,.25.01.37.04-.72-.3-1.14-1.07-.98-1.85.2-.96.31-1.94.31-2.92,0-.9.74-1.64,1.64-1.64s1.64.74,1.64,1.64c0,1.21-.13,2.42-.38,3.59-.16.75-.83,1.3-1.6,1.3-.11,0-.22-.01-.34-.04-.01,0-.02,0-.03,0h.03c.83.37,1.21,1.34.85,2.17-.47,1.07-1.04,2.13-1.72,3.13-.3.45-.81.73-1.36.73-.33,0-.64-.1-.91-.28-.02-.01-.03-.02-.05-.03.01.01.02.02.04.03.66.62.69,1.66.08,2.32-.79.84-1.66,1.64-2.58,2.38-.29.23-.65.36-1.02.36-.5,0-.97-.23-1.28-.62,0-.01-.02-.03-.03-.04,0,.01.02.03.03.04.23.37.3.81.19,1.24s-.37.79-.74,1.01c-.97.59-2,1.14-3.06,1.63-.22.1-.45.15-.68.15-.64,0-1.23-.38-1.49-.96,0-.01-.01-.02-.02-.04,0,.01,0,.03.01.04.29.86-.17,1.79-1.03,2.08-1.08.36-2.19.68-3.32.93-.12.03-.24.04-.36.04-.77,0-1.43-.53-1.6-1.28,0-.01,0-.03,0-.04v.04c.06.43-.06.86-.32,1.21-.27.35-.66.57-1.09.62-1.12.14-2.28.24-3.42.28h-.06Z"/>
            <path class="cls-5" d="M60.71,10.82c.78,0,1.41.63,1.41,1.41,0,1.19-.12,2.38-.37,3.55-.14.66-.72,1.11-1.37,1.11-.1,0-.19-.01-.29-.03-.76-.16-1.25-.91-1.08-1.67.21-.97.31-1.97.31-2.96,0-.78.63-1.41,1.41-1.41M6.95,10.82c.78,0,1.41.63,1.41,1.41,0,.74.06,1.49.17,2.21.12.77-.4,1.49-1.17,1.61-.07.01-.15.02-.22.02-.68,0-1.28-.5-1.39-1.19-.14-.87-.21-1.76-.21-2.65,0-.78.63-1.41,1.41-1.41h0M7.98,16.42c.57,0,1.1.35,1.32.91.35.92.79,1.83,1.32,2.71.4.66.19,1.53-.47,1.93-.23.14-.48.21-.73.21-.47,0-.94-.24-1.2-.67-.62-1.02-1.15-2.09-1.55-3.18-.27-.73.1-1.54.82-1.81.16-.06.33-.09.49-.09M59.37,17.19c.19,0,.38.04.56.12.71.31,1.04,1.14.73,1.85-.46,1.06-1.03,2.1-1.7,3.09-.27.4-.72.62-1.17.62-.27,0-.54-.08-.78-.24-.64-.43-.82-1.31-.38-1.95.57-.85,1.06-1.74,1.45-2.65.23-.53.75-.85,1.29-.85M11.35,22c.39,0,.79.16,1.06.49.65.76,1.39,1.48,2.18,2.16.59.51.66,1.39.15,1.98-.28.32-.67.49-1.07.49-.32,0-.65-.11-.92-.34-.9-.77-1.73-1.6-2.47-2.45-.51-.59-.44-1.47.14-1.98.27-.23.59-.34.92-.34M55.75,22.62c.34,0,.69.13.96.38.57.53.6,1.42.06,1.99-.78.83-1.64,1.62-2.56,2.36-.26.21-.57.31-.88.31-.41,0-.82-.18-1.1-.53-.48-.61-.39-1.49.22-1.98.81-.65,1.57-1.35,2.26-2.08.28-.29.65-.44,1.03-.44M16.3,26.28c.26,0,.53.07.77.23.85.56,1.76,1.07,2.7,1.54.7.34.98,1.19.64,1.88-.25.5-.74.78-1.26.78-.21,0-.42-.05-.62-.15-1.04-.52-2.05-1.09-2.99-1.71-.65-.42-.83-1.3-.41-1.95.27-.41.72-.64,1.18-.64M50.65,26.72c.47,0,.94.24,1.2.67.4.66.19,1.53-.47,1.93-.97.59-1.99,1.13-3.04,1.61-.19.09-.39.13-.59.13-.53,0-1.04-.3-1.28-.82-.32-.71-.01-1.54.69-1.86.95-.44,1.88-.93,2.75-1.46.23-.14.48-.21.73-.21M22.16,29.19c.16,0,.32.03.48.09.96.35,1.97.66,2.99.92.75.19,1.21.96,1.02,1.71-.16.64-.73,1.06-1.36,1.06-.11,0-.23-.01-.35-.04-1.12-.28-2.22-.62-3.27-1.01-.73-.27-1.1-1.08-.84-1.8.21-.57.75-.92,1.32-.92M44.71,29.47c.59,0,1.14.37,1.33.96.25.74-.15,1.53-.88,1.78-1.07.36-2.18.67-3.29.92-.1.02-.21.03-.31.03-.64,0-1.22-.44-1.37-1.1-.17-.76.3-1.51,1.06-1.68,1.02-.23,2.04-.52,3.02-.85.15-.05.3-.07.45-.07M28.51,30.81c.07,0,.14,0,.22.02,1.03.16,2.08.27,3.13.33.78.04,1.37.71,1.32,1.48-.04.75-.66,1.33-1.4,1.33-.03,0-.05,0-.08,0-1.14-.07-2.28-.18-3.39-.36-.77-.12-1.29-.83-1.18-1.6.11-.69.71-1.19,1.39-1.19M38.31,30.93c.7,0,1.31.51,1.4,1.23.1.77-.45,1.47-1.22,1.57-1.12.14-2.26.23-3.4.27-.02,0-.03,0-.05,0-.75,0-1.38-.6-1.4-1.36-.03-.78.58-1.43,1.36-1.45,1.05-.04,2.1-.12,3.14-.25.06,0,.11,0,.17,0M60.71,10.36c-1.03,0-1.87.84-1.87,1.87,0,.96-.1,1.92-.3,2.87-.13.62.06,1.23.46,1.66-.59.12-1.1.52-1.35,1.09-.38.88-.86,1.74-1.41,2.57-.36.54-.41,1.2-.18,1.76-.1-.02-.21-.03-.31-.03h0c-.52,0-1.01.22-1.37.59-.67.72-1.42,1.4-2.21,2.04-.39.31-.64.76-.69,1.26-.02.13-.02.27,0,.4-.25-.12-.53-.19-.82-.19h0c-.34,0-.68.09-.97.27-.85.52-1.76,1-2.7,1.44-.61.28-1,.84-1.08,1.46-.33-.27-.75-.43-1.19-.43h0c-.2,0-.4.03-.59.1-.97.33-1.97.61-2.98.83-.49.11-.9.4-1.17.83-.08.12-.14.26-.19.39-.35-.43-.88-.7-1.47-.7-.07,0-.15,0-.22.01-1.03.13-2.07.21-3.1.25-.67.02-1.25.4-1.57.95-.3-.55-.87-.94-1.54-.98-1.03-.06-2.07-.17-3.09-.32-.1-.01-.19-.02-.29-.02h0c-.56,0-1.07.26-1.42.66-.04-.14-.1-.27-.18-.4-.26-.43-.66-.73-1.15-.86-1-.25-2-.56-2.95-.91-.21-.08-.42-.11-.64-.11h0c-.42,0-.83.15-1.15.4-.01-.14-.04-.28-.09-.41-.16-.47-.5-.86-.94-1.08-.93-.46-1.82-.97-2.66-1.51-.31-.2-.66-.3-1.02-.3h0c-.27,0-.53.06-.77.16.02-.13.02-.26.01-.4-.04-.5-.27-.95-.65-1.28-.78-.67-1.49-1.38-2.13-2.12-.36-.41-.87-.65-1.42-.65h0c-.08,0-.15,0-.23.01.05-.11.09-.22.12-.34.12-.49.04-.99-.22-1.42-.52-.85-.95-1.73-1.28-2.63-.22-.58-.7-1-1.28-1.16.08-.07.15-.15.21-.24.3-.4.41-.9.34-1.39-.11-.7-.17-1.42-.17-2.14,0-1.03-.84-1.87-1.87-1.87-.5,0-.97.2-1.33.55-.35.35-.55.83-.55,1.33,0,.91.07,1.82.21,2.72.12.76.67,1.34,1.38,1.53-.52.5-.72,1.29-.45,2,.42,1.12.95,2.21,1.59,3.26.34.56.94.9,1.6.9.08,0,.15,0,.23-.01-.3.65-.21,1.44.29,2.01.76.87,1.61,1.72,2.52,2.5.34.29.77.45,1.22.45.27,0,.53-.06.77-.16-.03.21-.02.43.02.64.1.49.39.91.81,1.18.96.63,1.98,1.21,3.04,1.73.26.13.54.2.83.2.43,0,.83-.14,1.15-.39.02.2.08.4.16.6.21.45.59.8,1.06.97,1.07.39,2.18.74,3.32,1.02.15.04.31.06.46.06.56,0,1.08-.25,1.43-.66.06.19.15.38.28.54.3.4.73.67,1.23.74,1.13.17,2.29.29,3.44.36h.11c.69,0,1.3-.38,1.63-.94.32.59.94.98,1.65.98,0,0,.07,0,.08,0,1.14-.04,2.3-.13,3.43-.28.73-.09,1.31-.6,1.53-1.25.35.43.87.69,1.46.69.14,0,.28-.02.42-.05,1.13-.26,2.26-.57,3.34-.94.7-.24,1.17-.85,1.26-1.54.33.27.75.43,1.19.43.27,0,.53-.06.78-.17,1.07-.49,2.11-1.04,3.09-1.64.64-.39.96-1.1.89-1.79.25.12.53.19.82.19.42,0,.84-.15,1.17-.41.93-.75,1.81-1.55,2.61-2.4.52-.55.64-1.34.37-1.99.1.02.2.03.31.03.63,0,1.21-.31,1.56-.83.68-1.02,1.27-2.08,1.74-3.17.2-.46.21-.97.02-1.43-.09-.22-.21-.42-.37-.59.72-.15,1.3-.71,1.46-1.45.25-1.2.38-2.42.38-3.64,0-1.03-.84-1.87-1.87-1.87h0Z"/>
          </g>
          <g class="cls-8">
            <path class="cls-7" d="M35.05,34c-.75,0-1.38-.6-1.4-1.36-.03-.78.58-1.43,1.36-1.45,1.05-.04,2.1-.12,3.14-.25.77-.09,1.48.45,1.57,1.22.1.77-.45,1.47-1.22,1.57-1.12.14-2.26.23-3.4.27-.02,0-.03,0-.05,0ZM31.77,33.96s-.05,0-.08,0c-1.14-.06-2.28-.18-3.39-.36-.77-.12-1.29-.83-1.18-1.6.12-.77.84-1.3,1.6-1.18,1.03.16,2.08.27,3.13.33.78.04,1.37.71,1.32,1.48-.04.75-.66,1.33-1.4,1.33ZM41.55,33.17c-.64,0-1.22-.44-1.37-1.1-.17-.76.3-1.51,1.06-1.68,1.02-.23,2.04-.52,3.02-.85.74-.24,1.53.15,1.78.88.25.74-.15,1.53-.88,1.78-1.07.36-2.18.67-3.29.92-.1.02-.21.03-.31.03ZM25.3,32.97c-.11,0-.23-.01-.35-.04-1.12-.28-2.22-.62-3.27-1.01-.73-.27-1.1-1.08-.84-1.8.27-.73,1.08-1.1,1.8-.84.96.35,1.97.66,2.99.92.75.19,1.21.96,1.02,1.71-.16.64-.73,1.06-1.36,1.06ZM47.76,31.07c-.53,0-1.04-.3-1.28-.82-.32-.71-.01-1.54.69-1.86.95-.44,1.88-.93,2.75-1.46.66-.4,1.53-.19,1.93.47.4.66.19,1.53-.47,1.93-.97.59-1.99,1.13-3.04,1.61-.19.09-.39.13-.59.13ZM19.15,30.71c-.21,0-.42-.05-.62-.15-1.04-.52-2.05-1.09-2.99-1.71-.65-.42-.83-1.3-.41-1.95.42-.65,1.3-.83,1.95-.41.85.56,1.76,1.07,2.7,1.54.7.34.98,1.19.64,1.88-.25.5-.74.78-1.26.78ZM53.34,27.66c-.41,0-.82-.18-1.1-.53-.48-.61-.39-1.49.22-1.98.81-.65,1.57-1.35,2.26-2.08.53-.57,1.42-.59,1.99-.06.57.53.6,1.42.06,1.99-.78.83-1.64,1.62-2.56,2.36-.26.21-.57.31-.88.31ZM13.68,27.12c-.32,0-.65-.11-.92-.34-.9-.77-1.73-1.6-2.47-2.45-.51-.59-.44-1.47.14-1.98.59-.51,1.48-.44,1.98.14.65.76,1.39,1.48,2.18,2.16.59.51.66,1.39.15,1.98-.28.32-.67.49-1.07.49ZM57.79,22.88c-.27,0-.54-.08-.78-.24-.64-.43-.82-1.31-.38-1.95.57-.85,1.06-1.74,1.45-2.65.31-.71,1.14-1.04,1.85-.73.71.31,1.04,1.14.73,1.85-.46,1.06-1.03,2.1-1.7,3.09-.27.4-.72.62-1.17.62ZM9.42,22.17c-.47,0-.94-.24-1.2-.67-.62-1.02-1.15-2.09-1.55-3.18-.27-.73.1-1.54.82-1.81.72-.27,1.54.1,1.81.82.35.92.79,1.83,1.32,2.71.4.66.19,1.53-.47,1.93-.23.14-.48.21-.73.21ZM60.37,16.89c-.1,0-.19-.01-.29-.03-.76-.16-1.25-.91-1.08-1.67.21-.97.31-1.97.31-2.96,0-.78.63-1.41,1.41-1.41s1.41.63,1.41,1.41c0,1.19-.12,2.38-.37,3.55-.14.66-.72,1.11-1.37,1.11ZM7.14,16.07c-.68,0-1.28-.5-1.39-1.19-.14-.87-.21-1.76-.21-2.65,0-.78.63-1.41,1.41-1.41h0c.78,0,1.41.63,1.41,1.41,0,.74.06,1.49.17,2.21.12.77-.4,1.49-1.17,1.61-.07.01-.15.02-.22.02Z"/>
          </g>
          <g>
            <g>
              <path class="cls-2" d="M5.37,30.88c-.9,0-1.64-.74-1.64-1.64v-1.12c0-.9.74-1.64,1.64-1.64s1.64.74,1.64,1.64v1.12c0,.9-.74,1.64-1.64,1.64ZM5.37,26.48c-.9,0-1.64-.74-1.64-1.64v-3.28c0-.9.74-1.64,1.64-1.64s1.64.74,1.64,1.64v3.28c0,.9-.74,1.64-1.64,1.64ZM5.37,19.92c-.9,0-1.64-.74-1.64-1.64v-3.28c0-.9.74-1.64,1.64-1.64s1.64.74,1.64,1.64v3.28c0,.9-.74,1.64-1.64,1.64ZM5.37,13.36c-.9,0-1.64-.74-1.64-1.64v-3.28c0-.9.74-1.64,1.64-1.64s1.64.74,1.64,1.64v3.28c0,.9-.74,1.64-1.64,1.64ZM5.37,6.8c-.9,0-1.64-.74-1.64-1.64V1.88c0-.9.74-1.64,1.64-1.64s1.64.74,1.64,1.64v3.28c0,.9-.74,1.64-1.64,1.64Z"/>
              <path class="cls-5" d="M5.37.47c.78,0,1.41.63,1.41,1.41v3.28c0,.78-.63,1.41-1.41,1.41s-1.41-.63-1.41-1.41V1.87c0-.78.63-1.41,1.41-1.41M5.37,7.03c.78,0,1.41.63,1.41,1.41v3.28c0,.78-.63,1.41-1.41,1.41s-1.41-.63-1.41-1.41v-3.28c0-.78.63-1.41,1.41-1.41M5.37,13.59c.78,0,1.41.63,1.41,1.41v3.28c0,.78-.63,1.41-1.41,1.41s-1.41-.63-1.41-1.41v-3.28c0-.78.63-1.41,1.41-1.41M5.37,20.15c.78,0,1.41.63,1.41,1.41v3.28c0,.78-.63,1.41-1.41,1.41s-1.41-.63-1.41-1.41v-3.28c0-.78.63-1.41,1.41-1.41M5.37,26.71c.78,0,1.41.63,1.41,1.41v1.12c0,.78-.63,1.41-1.41,1.41s-1.41-.63-1.41-1.41v-1.12c0-.78.63-1.41,1.41-1.41M5.37,0c-1.03,0-1.87.84-1.87,1.87v3.28c0,.7.39,1.32.97,1.64-.58.32-.97.94-.97,1.64v3.28c0,.7.39,1.32.97,1.64-.58.32-.97.94-.97,1.64v3.28c0,.7.39,1.32.97,1.64-.58.32-.97.94-.97,1.64v3.28c0,.7.39,1.32.97,1.64-.58.32-.97.94-.97,1.64v1.12c0,1.03.84,1.87,1.87,1.87s1.87-.84,1.87-1.87v-1.12c0-.7-.39-1.32-.97-1.64.58-.32.97-.94.97-1.64v-3.28c0-.7-.39-1.32-.97-1.64.58-.32.97-.94.97-1.64v-3.28c0-.7-.39-1.32-.97-1.64.58-.32.97-.94.97-1.64v-3.28c0-.7-.39-1.32-.97-1.64.58-.32.97-.94.97-1.64V1.87c0-1.03-.84-1.87-1.87-1.87h0Z"/>
            </g>
            <g class="cls-8">
              <path class="cls-7" d="M5.37,30.64c-.78,0-1.41-.63-1.41-1.41v-1.12c0-.78.63-1.41,1.41-1.41s1.41.63,1.41,1.41v1.12c0,.78-.63,1.41-1.41,1.41ZM5.37,26.25c-.78,0-1.41-.63-1.41-1.41v-3.28c0-.78.63-1.41,1.41-1.41s1.41.63,1.41,1.41v3.28c0,.78-.63,1.41-1.41,1.41ZM5.37,19.68c-.78,0-1.41-.63-1.41-1.41v-3.28c0-.78.63-1.41,1.41-1.41s1.41.63,1.41,1.41v3.28c0,.78-.63,1.41-1.41,1.41ZM5.37,13.12c-.78,0-1.41-.63-1.41-1.41v-3.28c0-.78.63-1.41,1.41-1.41s1.41.63,1.41,1.41v3.28c0,.78-.63,1.41-1.41,1.41ZM5.37,6.56c-.78,0-1.41-.63-1.41-1.41V1.87c0-.78.63-1.41,1.41-1.41s1.41.63,1.41,1.41v3.28c0,.78-.63,1.41-1.41,1.41Z"/>
            </g>
          </g>
          <g>
            <polygon class="cls-1" points="6.32 36.59 5.39 31.25 4.46 36.59 .56 37.47 4.46 38.34 5.39 43.68 6.32 38.34 10.22 37.47 6.32 36.59"/>
            <path class="cls-3" d="M5.39,31.25l.93,5.34,3.9.88-3.9.87-.93,5.34-.93-5.34-3.9-.87,3.9-.88.93-5.34M5.39,30.69c-.27,0-.5.19-.55.46l-.87,4.98-3.54.79C.18,36.98,0,37.21,0,37.47c0,.26.18.49.44.54l3.54.79.87,4.98c.05.27.28.46.55.46.27,0,.5-.19.55-.46l.87-4.98,3.54-.79c.25-.06.44-.28.44-.54,0-.26-.18-.49-.43-.54l-3.54-.79-.87-4.98c-.05-.27-.28-.46-.55-.46h0Z"/>
          </g>
          <g class="cls-8">
            <path class="cls-9" d="M5.39,32.25l.76,4.37c.01.07.06.12.13.14l3.15.71-3.15.71c-.07.02-.12.07-.13.14l-.76,4.37-.76-4.37c-.01-.07-.06-.12-.13-.14l-3.15-.71,3.15-.71c.07-.02.12-.07.13-.14l.76-4.37M5.39,31.25l-.93,5.34-3.9.88,3.9.87.93,5.34.93-5.34,3.9-.87-3.9-.88-.93-5.34h0Z"/>
          </g>
        </g>
      </g>
    </g>
  </g>
</svg>