<?xml version="1.0" encoding="UTF-8"?>
<svg xmlns="http://www.w3.org/2000/svg" xmlns:xlink="http://www.w3.org/1999/xlink" viewBox="0 0 74.92 44.05">
  <defs>
    <style>
      .cls-1 {
        fill: none;
      }

      .cls-2 {
        fill: #d98632;
        mix-blend-mode: multiply;
        opacity: .52;
      }

      .cls-3 {
        fill: url(#radial-gradient-6);
      }

      .cls-4 {
        fill: url(#radial-gradient-5);
      }

      .cls-5 {
        fill: url(#radial-gradient-4);
      }

      .cls-6 {
        fill: url(#radial-gradient-3);
      }

      .cls-7 {
        fill: url(#radial-gradient-2);
      }

      .cls-8 {
        fill: url(#linear-gradient-8);
      }

      .cls-9 {
        fill: url(#linear-gradient-7);
      }

      .cls-10 {
        fill: url(#linear-gradient-5);
      }

      .cls-11 {
        fill: url(#linear-gradient-6);
      }

      .cls-12 {
        fill: url(#linear-gradient-9);
      }

      .cls-13 {
        fill: url(#linear-gradient-4);
      }

      .cls-14 {
        fill: url(#linear-gradient-3);
      }

      .cls-15 {
        fill: url(#linear-gradient-2);
      }

      .cls-16 {
        fill: url(#linear-gradient-15);
      }

      .cls-16, .cls-17, .cls-18, .cls-19, .cls-20, .cls-21 {
        opacity: .56;
      }

      .cls-16, .cls-17, .cls-18, .cls-19, .cls-20, .cls-21, .cls-22, .cls-23, .cls-24, .cls-25, .cls-26, .cls-27, .cls-28, .cls-29, .cls-30 {
        mix-blend-mode: overlay;
      }

      .cls-17 {
        fill: url(#linear-gradient-19);
      }

      .cls-18 {
        fill: url(#linear-gradient-38);
      }

      .cls-19 {
        fill: url(#linear-gradient-34);
      }

      .cls-20 {
        fill: url(#linear-gradient-39);
      }

      .cls-21 {
        fill: url(#linear-gradient-20);
      }

      .cls-31 {
        fill: url(#radial-gradient);
      }

      .cls-32 {
        fill: url(#linear-gradient);
      }

      .cls-33 {
        fill: #7a3f1a;
      }

      .cls-34 {
        isolation: isolate;
      }

      .cls-22 {
        fill: url(#linear-gradient-17);
      }

      .cls-23 {
        fill: url(#linear-gradient-16);
      }

      .cls-24 {
        fill: url(#linear-gradient-18);
      }

      .cls-25 {
        fill: url(#linear-gradient-35);
      }

      .cls-26 {
        fill: url(#linear-gradient-36);
      }

      .cls-27 {
        fill: url(#linear-gradient-37);
      }

      .cls-35 {
        fill: url(#linear-gradient-10);
      }

      .cls-36 {
        fill: url(#linear-gradient-11);
      }

      .cls-37 {
        fill: url(#linear-gradient-12);
      }

      .cls-38 {
        fill: url(#linear-gradient-13);
      }

      .cls-39 {
        fill: url(#linear-gradient-14);
      }

      .cls-40 {
        fill: url(#linear-gradient-21);
      }

      .cls-41 {
        fill: url(#linear-gradient-22);
      }

      .cls-42 {
        fill: url(#linear-gradient-23);
      }

      .cls-43 {
        fill: url(#linear-gradient-28);
      }

      .cls-44 {
        fill: url(#linear-gradient-25);
      }

      .cls-45 {
        fill: url(#linear-gradient-32);
      }

      .cls-46 {
        fill: url(#linear-gradient-31);
      }

      .cls-47 {
        fill: url(#linear-gradient-33);
      }

      .cls-48 {
        fill: url(#linear-gradient-30);
      }

      .cls-49 {
        fill: url(#linear-gradient-27);
      }

      .cls-50 {
        fill: url(#linear-gradient-24);
      }

      .cls-51 {
        fill: url(#linear-gradient-26);
      }

      .cls-52 {
        fill: url(#linear-gradient-29);
      }

      .cls-29 {
        opacity: .7;
      }

      .cls-53, .cls-30 {
        fill: #fff1d1;
      }

      .cls-54 {
        clip-path: url(#clippath);
      }
    </style>
    <linearGradient id="linear-gradient" x1="45.41" y1="3.14" x2="70.96" y2="20.26" gradientUnits="userSpaceOnUse">
      <stop offset="0" stop-color="#ffb33b"/>
      <stop offset=".04" stop-color="#ffb641"/>
      <stop offset=".11" stop-color="#ffc254"/>
      <stop offset=".18" stop-color="#ffd472"/>
      <stop offset=".23" stop-color="#ffe48c"/>
      <stop offset=".45" stop-color="#ffce67"/>
      <stop offset=".69" stop-color="#ffb33b"/>
      <stop offset=".84" stop-color="#ffad34"/>
      <stop offset="1" stop-color="#ffa327"/>
    </linearGradient>
    <linearGradient id="linear-gradient-2" x1="46.91" y1="-.87" x2="71.07" y2="15.33" xlink:href="#linear-gradient"/>
    <linearGradient id="linear-gradient-3" x1="45.18" y1="-.87" x2="69.98" y2="15.75" xlink:href="#linear-gradient"/>
    <linearGradient id="linear-gradient-4" x1="43.37" y1="6.13" x2="65.28" y2="20.82" xlink:href="#linear-gradient"/>
    <linearGradient id="linear-gradient-5" x1="37.61" y1="13.34" x2="61.16" y2="29.13" xlink:href="#linear-gradient"/>
    <linearGradient id="linear-gradient-6" x1="37.87" y1="13.32" x2="61.04" y2="28.86" xlink:href="#linear-gradient"/>
    <linearGradient id="linear-gradient-7" x1="39.31" y1="8.14" x2="63.64" y2="24.44" xlink:href="#linear-gradient"/>
    <linearGradient id="linear-gradient-8" x1="40.5" y1="8.76" x2="63.28" y2="24.03" xlink:href="#linear-gradient"/>
    <linearGradient id="linear-gradient-9" x1="44.08" y1="3.45" x2="66.55" y2="18.51" xlink:href="#linear-gradient"/>
    <linearGradient id="linear-gradient-10" x1="43.93" y1="3.4" x2="66.42" y2="18.47" xlink:href="#linear-gradient"/>
    <linearGradient id="linear-gradient-11" x1="39.83" y1="11.31" x2="64.16" y2="27.62" xlink:href="#linear-gradient"/>
    <linearGradient id="linear-gradient-12" x1="40.01" y1="11.3" x2="63.09" y2="26.78" xlink:href="#linear-gradient"/>
    <linearGradient id="linear-gradient-13" x1="42.91" y1="8.67" x2="66.76" y2="24.65" xlink:href="#linear-gradient"/>
    <linearGradient id="linear-gradient-14" x1="43.02" y1="8.7" x2="66.78" y2="24.64" xlink:href="#linear-gradient"/>
    <radialGradient id="radial-gradient" cx="-191.36" cy="21.9" fx="-191.36" fy="21.9" r="14.5" gradientTransform="translate(-138.95) rotate(-180) scale(1 -1)" gradientUnits="userSpaceOnUse">
      <stop offset="0" stop-color="#daf1f2" stop-opacity=".5"/>
      <stop offset=".14" stop-color="#daf1f2" stop-opacity=".65"/>
      <stop offset=".28" stop-color="#daf1f2" stop-opacity=".77"/>
      <stop offset=".44" stop-color="#daf1f2" stop-opacity=".87"/>
      <stop offset=".6" stop-color="#daf1f2" stop-opacity=".94"/>
      <stop offset=".78" stop-color="#daf1f2" stop-opacity=".99"/>
      <stop offset="1" stop-color="#daf1f2"/>
    </radialGradient>
    <radialGradient id="radial-gradient-2" cx="51.64" cy="22.03" fx="51.64" fy="22.03" r="17.41" gradientUnits="userSpaceOnUse">
      <stop offset="0" stop-color="#a6a1f5"/>
      <stop offset=".13" stop-color="#9f9aee"/>
      <stop offset=".31" stop-color="#8d88db"/>
      <stop offset=".52" stop-color="#6e6abd"/>
      <stop offset=".76" stop-color="#444093"/>
      <stop offset="1" stop-color="#130f61"/>
    </radialGradient>
    <radialGradient id="radial-gradient-3" cx="-190.73" cy="3.34" fx="-190.73" fy="3.34" r="14.27" gradientTransform="translate(-138.95) rotate(-180) scale(1 -1)" gradientUnits="userSpaceOnUse">
      <stop offset="0" stop-color="#ffae49"/>
      <stop offset=".98" stop-color="#ffae49" stop-opacity="0"/>
    </radialGradient>
    <linearGradient id="linear-gradient-15" x1="-186.68" y1="-2.71" x2="-190.4" y2="16.63" gradientTransform="translate(-138.95) rotate(-180) scale(1 -1)" gradientUnits="userSpaceOnUse">
      <stop offset=".23" stop-color="#fff"/>
      <stop offset=".63" stop-color="#fff" stop-opacity="0"/>
    </linearGradient>
    <linearGradient id="linear-gradient-16" x1="-192.92" y1="9.86" x2="-188.84" y2="42.29" xlink:href="#linear-gradient-15"/>
    <linearGradient id="linear-gradient-17" x1="-191.29" y1="5.22" x2="-198.15" y2="18.7" gradientTransform="translate(-125.18 -63.72) rotate(-160.56) scale(1 -1)" xlink:href="#linear-gradient-15"/>
    <linearGradient id="linear-gradient-18" x1="-187.69" y1="7.05" x2="-194.55" y2="20.53" gradientTransform="translate(-123.73 -62.74) rotate(-160.56) scale(1 -1)" xlink:href="#linear-gradient-15"/>
    <linearGradient id="linear-gradient-19" x1="-182.08" y1="30.48" x2="-183.89" y2="18.64" xlink:href="#linear-gradient-15"/>
    <linearGradient id="linear-gradient-20" x1="-185.53" y1="30.47" x2="-187.35" y2="18.63" xlink:href="#linear-gradient-15"/>
    <clipPath id="clippath">
      <path class="cls-1" d="M43.16,7.02s-5.36.47-6.26,4.74.52,13.04,11.28,13.7,26.93-1.71,26.74-4.41-14.84-7.25-14.84-7.25"/>
    </clipPath>
    <linearGradient id="linear-gradient-21" x1="46.91" y1="-.87" x2="71.07" y2="15.33" xlink:href="#linear-gradient"/>
    <linearGradient id="linear-gradient-22" x1="45.18" y1="-.87" x2="69.98" y2="15.75" xlink:href="#linear-gradient"/>
    <linearGradient id="linear-gradient-23" x1="43.37" y1="6.13" x2="65.28" y2="20.82" xlink:href="#linear-gradient"/>
    <linearGradient id="linear-gradient-24" x1="37.61" y1="13.34" x2="61.16" y2="29.13" xlink:href="#linear-gradient"/>
    <linearGradient id="linear-gradient-25" x1="37.87" y1="13.32" x2="61.04" y2="28.86" xlink:href="#linear-gradient"/>
    <linearGradient id="linear-gradient-26" x1="39.31" y1="8.14" x2="63.64" y2="24.44" xlink:href="#linear-gradient"/>
    <linearGradient id="linear-gradient-27" x1="40.5" y1="8.76" x2="63.28" y2="24.03" xlink:href="#linear-gradient"/>
    <linearGradient id="linear-gradient-28" x1="44.08" y1="3.45" x2="66.55" y2="18.51" xlink:href="#linear-gradient"/>
    <linearGradient id="linear-gradient-29" x1="43.93" y1="3.4" x2="66.42" y2="18.47" xlink:href="#linear-gradient"/>
    <linearGradient id="linear-gradient-30" x1="39.83" y1="11.31" x2="64.16" y2="27.62" xlink:href="#linear-gradient"/>
    <linearGradient id="linear-gradient-31" x1="40.01" y1="11.3" x2="63.09" y2="26.78" xlink:href="#linear-gradient"/>
    <linearGradient id="linear-gradient-32" x1="42.91" y1="8.67" x2="66.76" y2="24.65" xlink:href="#linear-gradient"/>
    <linearGradient id="linear-gradient-33" x1="43.02" y1="8.7" x2="66.78" y2="24.64" xlink:href="#linear-gradient"/>
    <radialGradient id="radial-gradient-4" cx="10.22" cy="21.9" fx="10.22" fy="21.9" r="14.5" gradientTransform="matrix(1,0,0,1,0,0)" xlink:href="#radial-gradient"/>
    <radialGradient id="radial-gradient-5" cx="11" fx="11" r="17.41" xlink:href="#radial-gradient-2"/>
    <radialGradient id="radial-gradient-6" cx="10.85" cy="3.34" fx="10.85" fy="3.34" r="14.27" gradientTransform="matrix(1,0,0,1,0,0)" xlink:href="#radial-gradient-3"/>
    <linearGradient id="linear-gradient-34" x1="14.91" y1="-2.71" x2="11.18" y2="16.63" gradientTransform="matrix(1,0,0,1,0,0)" xlink:href="#linear-gradient-15"/>
    <linearGradient id="linear-gradient-35" x1="8.67" y1="9.86" x2="12.74" y2="42.29" gradientTransform="matrix(1,0,0,1,0,0)" xlink:href="#linear-gradient-15"/>
    <linearGradient id="linear-gradient-36" x1="10.3" y1="5.22" x2="3.44" y2="18.7" gradientTransform="translate(13.69 -2.63) rotate(70.56)" xlink:href="#linear-gradient-15"/>
    <linearGradient id="linear-gradient-37" x1="13.9" y1="7.05" x2="7.03" y2="20.53" gradientTransform="translate(19.55 -1.5) rotate(70.56)" xlink:href="#linear-gradient-15"/>
    <linearGradient id="linear-gradient-38" x1="19.5" y1="30.48" x2="17.69" y2="18.64" gradientTransform="matrix(1,0,0,1,0,0)" xlink:href="#linear-gradient-15"/>
    <linearGradient id="linear-gradient-39" x1="16.05" y1="30.47" x2="14.24" y2="18.63" gradientTransform="matrix(1,0,0,1,0,0)" xlink:href="#linear-gradient-15"/>
  </defs>
  <g class="cls-34">
    <g id="Layer_2" data-name="Layer 2">
      <g id="Layer_1-2" data-name="Layer 1">
        <g>
          <g>
            <g>
              <g>
                <g>
                  <path class="cls-32" d="M44.58,3.83c-.05,0-.1-.04-.12-.08-.02-.05-.01-.1.02-.14l1.15-1.45s.07-.05.11-.05c0,0,.01,0,.02,0,.05,0,.09.04.11.08l.65,1.59s.01.1-.02.13c-.03.04-.07.06-.11.06,0,0-1.81-.14-1.81-.14Z"/>
                  <path class="cls-33" d="M45.74,2.25l.65,1.59-1.8-.14,1.15-1.45M45.74,1.97c-.08,0-.16.04-.22.11l-1.15,1.45c-.06.08-.08.19-.04.28.04.09.13.16.23.17l1.8.14s.01,0,.02,0c.09,0,.17-.04.23-.11.06-.08.07-.18.03-.27l-.65-1.59c-.04-.09-.12-.16-.22-.17-.01,0-.03,0-.04,0h0Z"/>
                </g>
                <g class="cls-28">
                  <path class="cls-53" d="M45.69,2.57l.44,1.07-1.22-.1.78-.98M45.74,2.25l-1.15,1.45,1.8.14-.65-1.59h0Z"/>
                </g>
                <g>
                  <path class="cls-15" d="M55.36,7.5c-1.59-.13-2.22-1.27-2.24-1.32-.03-.05-.02-.11.02-.16l3.11-3.66s.07-.05.11-.05c.02,0,.04,0,.06.01.06.03.09.09.08.15l-.98,4.91c-.01.07-.07.11-.14.11,0,0,0,0-.01,0Z"/>
                  <path class="cls-33" d="M56.35,2.45h0M56.35,2.45l-.98,4.91c-1.53-.12-2.13-1.24-2.13-1.24l3.11-3.66M56.35,2.18s-.01,0-.02,0c-.05,0-.1.02-.14.05-.02.01-.03.03-.05.04,0,0,0,0,0,0l-3.11,3.66c-.07.09-.09.21-.03.31.03.05.7,1.25,2.36,1.39,0,0,.02,0,.02,0,.13,0,.25-.09.27-.22l.97-4.87s.01-.06.01-.09c0-.15-.12-.28-.28-.28h0ZM56.35,2.73h0,0Z"/>
                </g>
                <g class="cls-28">
                  <path class="cls-53" d="M56.06,3.05l-.82,4.13c-1.08-.14-1.62-.8-1.79-1.05l2.61-3.08M56.35,2.45h0,0ZM56.35,2.45l-3.11,3.66s.6,1.12,2.13,1.24l.98-4.91h0Z"/>
                </g>
                <g>
                  <path class="cls-14" d="M62.2,11.5c-.06,0-1.44-.17-1.67-1.32-.01-.07.03-.15.11-.16,0,0,1.98-.45,1.99-.45.04,0,.07.01.1.04.03.03.05.08.04.13l-.41,1.65c-.02.06-.07.11-.14.11,0,0,0,0-.01,0Z"/>
                  <path class="cls-33" d="M62.62,9.71l-.41,1.65s-1.33-.14-1.55-1.21l1.96-.44M62.62,9.43s-.04,0-.06,0l-1.96.44c-.15.03-.24.18-.21.33.25,1.25,1.73,1.42,1.79,1.43,0,0,.02,0,.03,0,.13,0,.24-.09.27-.21l.41-1.65c.02-.09,0-.19-.07-.26-.05-.05-.12-.08-.2-.08h0ZM62.62,9.99h0,0Z"/>
                </g>
                <g class="cls-28">
                  <path class="cls-53" d="M62.4,9.93l-.31,1.24c-.3-.06-1-.28-1.21-.89l1.52-.35M62.62,9.71l-1.96.44c.21,1.07,1.55,1.21,1.55,1.21l.41-1.65h0Z"/>
                </g>
              </g>
              <g>
                <path class="cls-13" d="M61.33,21.17c-3.38,0-7.76-1.19-12.03-3.27-7.89-3.86-13.04-9.63-11.47-12.86.32-.66.89-1.17,1.68-1.53.9-.41,2.07-.62,3.48-.62,3.38,0,7.76,1.19,12.03,3.27,7.18,3.51,12.22,8.68,11.72,12.03-.04.29-.12.58-.25.83-.68,1.38-2.51,2.14-5.17,2.14h0ZM44.28,5.13c-1.63,0-2.68.4-3.05,1.17-.2.4-.2.89,0,1.46.81,2.36,4.71,5.59,9.71,8.02,3.82,1.86,7.7,2.97,10.39,2.97,1.63,0,2.69-.4,3.06-1.16,1.02-2.12-3.33-6.37-9.71-9.48-3.83-1.86-7.72-2.98-10.4-2.98Z"/>
                <path class="cls-33" d="M43,3.03c3.23,0,7.56,1.11,11.97,3.26,7.23,3.53,12.13,8.62,11.64,11.89-.03.28-.11.55-.23.79-.68,1.39-2.52,2.06-5.04,2.06-3.23,0-7.56-1.11-11.97-3.26-7.84-3.83-12.95-9.5-11.41-12.68.31-.64.87-1.13,1.62-1.46.89-.4,2.06-.6,3.43-.6M61.33,18.89c1.62,0,2.77-.4,3.18-1.24,1.06-2.19-3.31-6.52-9.77-9.67-3.99-1.95-7.85-2.99-10.46-2.99-1.62,0-2.77.4-3.17,1.24-1.07,2.18,3.3,6.52,9.77,9.67,3.99,1.95,7.84,2.99,10.45,2.99M43,2.75c-1.43,0-2.62.21-3.54.63-.82.37-1.41.9-1.75,1.59-1.63,3.36,3.44,9.09,11.54,13.05,4.29,2.09,8.7,3.28,12.09,3.28,2.75,0,4.58-.77,5.29-2.22.13-.27.22-.57.26-.88.52-3.46-4.44-8.58-11.8-12.17-4.29-2.09-8.69-3.28-12.09-3.28h0ZM61.33,18.61c-2.67,0-6.53-1.11-10.33-2.96-4.96-2.42-8.83-5.61-9.63-7.94-.18-.54-.19-.99,0-1.36.34-.7,1.38-1.09,2.92-1.09,2.67,0,6.53,1.11,10.34,2.96,6.2,3.02,10.61,7.28,9.64,9.3-.34.7-1.38,1.08-2.93,1.08h0Z"/>
              </g>
              <path class="cls-2" d="M66.61,18.17c-.03.28-.11.55-.23.79-1.55,3.16-9.16,2.63-17.01-1.19-7.84-3.83-12.95-9.5-11.41-12.68.31-.64.87-1.13,1.62-1.46-.55.91-.91,2.14-.65,3.69.68,4.02,7.29,8.76,15.32,11.42,6.45,2.14,10.59,1.24,12.37-.57Z"/>
              <g class="cls-28">
                <path class="cls-53" d="M43.01,3.2c3.33,0,7.66,1.18,11.89,3.24,3.78,1.84,7.03,4.17,9.17,6.54,2.11,2.34,2.87,4.44,2.16,5.9-.62,1.27-2.36,1.97-4.89,1.97-3.33,0-7.66-1.18-11.89-3.24-3.78-1.84-7.03-4.17-9.17-6.54-2.11-2.34-2.87-4.44-2.16-5.9.62-1.27,2.36-1.97,4.89-1.97M61.33,19.05c1.75,0,2.91-.46,3.33-1.33,1.12-2.31-3.2-6.65-9.85-9.89-3.86-1.88-7.79-3-10.53-3-1.75,0-2.91.46-3.33,1.33-1.12,2.31,3.2,6.65,9.85,9.89,3.86,1.88,7.79,3,10.53,3M43.01,3.03c-2.52,0-4.37.68-5.04,2.07-1.55,3.17,3.56,8.84,11.41,12.67,4.4,2.15,8.74,3.26,11.96,3.26,2.52,0,4.37-.68,5.04-2.07,1.55-3.17-3.56-8.84-11.41-12.67-4.4-2.15-8.74-3.26-11.96-3.26h0ZM61.33,18.89c-2.62,0-6.47-1.04-10.45-2.99-6.46-3.15-10.84-7.48-9.77-9.67.41-.84,1.56-1.24,3.18-1.24,2.62,0,6.47,1.04,10.45,2.99,6.46,3.15,10.84,7.48,9.77,9.67-.41.84-1.56,1.24-3.18,1.24h0Z"/>
              </g>
              <g>
                <path class="cls-10" d="M44.79,23.54s-.05,0-.07-.02c-.06-.03-.08-.1-.06-.17l2.65-7.79s.04-.07.07-.08c.01,0,.26-.12.64-.12s.74.1,1.1.3c1.22.68,1.07,1.67,1.07,1.71l-5.29,6.11s-.07.05-.1.05Z"/>
                <path class="cls-33" d="M48.03,15.51c.28,0,.64.06,1.03.28,1.15.64,1,1.56,1,1.56l-5.26,6.04,2.65-7.79s.23-.1.59-.1M48.03,15.23c-.41,0-.67.12-.7.13-.07.03-.12.09-.15.16l-2.65,7.79c-.04.13,0,.26.12.33.04.03.09.04.14.04.08,0,.16-.03.21-.1l5.26-6.04s.06-.09.06-.14c0-.05.17-1.13-1.13-1.85-.38-.21-.77-.32-1.17-.32h0Z"/>
              </g>
              <path class="cls-11" d="M50.21,17.35l-5.41,6.05,2.64-7.93s.1-.04.26-.1c.32-.1.92-.19,1.54.16.33.18.56.4.7.63.2.31.27.62.28.86.02.2,0,.33,0,.33Z"/>
              <path class="cls-2" d="M50.21,17.35l-5.41,6.05,5.14-7.24c.2.31.27.62.28.86.02.2,0,.33,0,.33Z"/>
              <g>
                <path class="cls-9" d="M57.65,22.27c-.06,0-.1-.04-.12-.09l-1-2.68c-.02-.06,0-.13.05-.16.43-.29.83-.44,1.2-.44.86,0,1.18.82,1.19.85.01.04.01.08,0,.11l-1.19,2.33s-.07.08-.12.08c0,0,0,0,0,0Z"/>
                <path class="cls-33" d="M57.78,19.04c.78,0,1.06.76,1.06.76l-1.19,2.33-1-2.68c.45-.31.82-.42,1.12-.42M57.78,18.76c-.39,0-.82.16-1.27.47-.11.07-.15.21-.1.33l1,2.68c.04.1.13.17.25.18,0,0,.01,0,.02,0,.1,0,.2-.06.25-.15l1.19-2.33c.04-.07.04-.15.01-.22-.01-.04-.36-.94-1.32-.94h0Z"/>
              </g>
              <path class="cls-8" d="M58.94,19.7l-1.28,2.44-1.07-2.77c.08-.09.16-.17.23-.23.66-.6,1.16-.55,1.5-.29.21.14.37.36.47.53.1.18.14.32.14.32Z"/>
              <path class="cls-2" d="M58.94,19.7l-1.28,2.44.67-3.3c.21.14.37.36.47.53.1.18.14.32.14.32Z"/>
              <g>
                <path class="cls-12" d="M65.07,19.59s-.09-.04-.11-.09c0-.02-.68-1.79,1.03-2.87.02-.01.05-.02.07-.02s.05,0,.07.02l6.56,3.93c.06.03.08.1.06.17-.02.06-.07.09-.13.09,0,0-7.56-1.23-7.56-1.23Z"/>
                <path class="cls-33" d="M66.07,16.75l6.56,3.93-7.54-1.23s-.66-1.67.98-2.7M66.07,16.47c-.05,0-.1.01-.15.04-1.81,1.14-1.1,3.02-1.09,3.04.04.09.12.16.21.17l7.54,1.23s.03,0,.04,0c.12,0,.22-.07.26-.18.05-.13,0-.27-.12-.33l-6.56-3.93s-.09-.04-.14-.04h0Z"/>
              </g>
              <path class="cls-35" d="M72.64,20.68l-7.61-1.17s-.06-.08-.11-.21c-.08-.14-.17-.36-.2-.61-.08-.53.04-1.24.89-1.86.11-.08.23-.16.37-.23l6.64,4.08s.02.01.02.01Z"/>
              <path class="cls-2" d="M72.64,20.68l-7.61-1.17s-.06-.08-.11-.21c-.08-.14-.17-.36-.2-.61,1.55.41,7.48,1.88,7.9,1.98.01.01.02.01.02.01Z"/>
              <g>
                <path class="cls-36" d="M39.21,12.82s-.09-.03-.12-.07c-.03-.05-.03-.11,0-.15,1.57-2.2,1.58-2.2,1.68-2.2.02,0,.07,0,.15,0,.34,0,1.43.13,1.5,1.85,0,.07-.05.13-.12.14,0,0-3.08.44-3.09.44Z"/>
                <path class="cls-33" d="M40.92,10.52c.37,0,1.3.15,1.36,1.71l-3.07.44s1.53-2.15,1.56-2.15c0,0,.06,0,.15,0M40.92,10.25c-.08,0-.14,0-.17,0h0c-.16,0-.18.03-1.77,2.26-.06.09-.07.21-.01.31.05.08.14.13.24.13.01,0,.03,0,.04,0l3.07-.44c.14-.02.24-.14.24-.29-.07-1.84-1.27-1.98-1.64-1.98h0Z"/>
              </g>
              <path class="cls-37" d="M42.43,12.12s-.01.1-.01.16l-3.22.4.02-.02c.17-.26,1.56-2.24,1.6-2.24.01,0,.09-.01.21-.01.23,0,.61.04.91.29.3.23.52.67.48,1.43Z"/>
              <path class="cls-2" d="M41.96,10.7l-2.73,1.96c.17-.26,1.56-2.24,1.6-2.24.01,0,.09-.01.21-.01.23,0,.61.04.91.29Z"/>
              <g>
                <path class="cls-38" d="M38.64,7.91s-.07-.01-.1-.04l-5.81-5.47s-.06-.12-.02-.17c.03-.04.07-.07.12-.07.02,0,.03,0,.05,0l7.23,2.49c.09.08.64.82,0,2.03-.64,1.21-1.43,1.23-1.47,1.23h0Z"/>
                <path class="cls-33" d="M32.83,2.29l7.23,2.49s.53.69-.08,1.83c-.6,1.15-1.35,1.15-1.35,1.15l-5.81-5.48M32.83,2.02c-.1,0-.19.05-.24.13-.07.11-.05.26.05.35l5.81,5.48c.05.05.12.08.19.08h0s.91-.02,1.59-1.3c.68-1.29.08-2.1.05-2.13-.03-.04-.08-.08-.13-.09l-7.23-2.49s-.06-.02-.09-.02h0Z"/>
              </g>
              <path class="cls-39" d="M40.22,6.73c-.04.09-.09.17-.14.23-.37.57-.81.79-1.1.88-.18.04-.29.04-.29.04l-5.85-5.59,7.34,2.41s.04.07.11.19c.14.31.37,1.01-.07,1.84Z"/>
              <path class="cls-2" d="M40.07,6.97c-.37.57-.81.79-1.1.88-.18.04-.29.04-.29.04l-5.85-5.59,7.24,4.67Z"/>
              <path class="cls-30" d="M33.67,2.75l5.3,5.09c-.18.04-.29.04-.29.04l-5.85-5.59,7.34,2.41s.04.07.11.19l-6.62-2.14Z"/>
              <path class="cls-30" d="M42.43,12.12s-.01.1-.01.16l-3.22.4s1.58-2.26,1.63-2.26c.01,0,.09-.01.21-.01l-1.43,2.01,2.82-.29Z"/>
              <path class="cls-30" d="M50.21,17.35l-5.41,6.05,2.64-7.93s.1-.04.26-.1l-2.46,7.34,4.98-5.69c.02.2,0,.33,0,.33Z"/>
              <path class="cls-30" d="M58.94,19.7l-1.28,2.44-1.07-2.77c.08-.09.16-.17.23-.23l.82,2.41,1.15-2.16c.1.18.14.32.14.32Z"/>
              <path class="cls-30" d="M72.64,20.68l-7.61-1.17s-.06-.08-.11-.21l6.87.94-6.18-3.41c.11-.08.23-.16.37-.23l6.66,4.09Z"/>
            </g>
            <g>
              <g>
                <path class="cls-31" d="M42.6,40.39s.2.1.56.26c2.36,1.04,11.56,4.77,14.98,1.28.39-.39.76-.86,1.09-1.39,2.27-3.5,3.56-10.02,2.14-18.69-.36-2.22-.9-4.58-1.65-7.06-.45-1.55-1-3.14-1.64-4.8-1.79-4.65-3.56-7.4-5.27-8.59-4.2-2.97-7.9,3.64-10.09,14.72-.01.04-.01.08-.02.12-3.05,15.46-.1,24.16-.1,24.16Z"/>
                <path class="cls-7" d="M50.82.67c.65,0,1.32.23,2,.71,1.7,1.19,3.48,3.94,5.27,8.59.64,1.66,1.19,3.25,1.64,4.8.75,2.48,1.29,4.85,1.65,7.06,1.43,8.68.13,15.2-2.14,18.69-.33.53-.7,1-1.09,1.39-1.05,1.07-2.63,1.46-4.4,1.46-4.01,0-8.95-2.02-10.59-2.74-.36-.16-.56-.26-.56-.26,0,0-2.95-8.7.1-24.16.01-.04.01-.08.02-.12,1.84-9.28,4.73-15.43,8.09-15.43M50.82,0c-4.86,0-7.57,10.01-8.75,15.97,0,.01-.01.06-.02.1-3.06,15.49-.21,24.17-.08,24.54.06.17.18.31.34.38,0,0,.21.11.59.27,1.91.84,6.81,2.79,10.86,2.79,2.16,0,3.8-.56,4.88-1.66.42-.42.82-.93,1.18-1.51,2.69-4.13,3.52-11.3,2.23-19.16-.37-2.28-.93-4.68-1.67-7.15-.41-1.42-.95-3.01-1.65-4.85-1.77-4.59-3.62-7.58-5.51-8.9-.78-.55-1.58-.83-2.38-.83h0Z"/>
              </g>
              <path class="cls-6" d="M42.7,16.22c2.61.87,5.35,1.56,8.04,1.91,4.2.55,7.06-1.06,8.98-3.36-.46-1.54-1.01-3.14-1.64-4.79-6.23-16.17-12.29-9.43-15.36,6.12-.01.04-.01.08-.03.12Z"/>
              <path class="cls-29" d="M42.6,40.39s11.61,5.55,15.54,1.54c2.91-2.94,4.88-10.08,3.23-20.09.03.78.04,1.6.04,2.48,0,9.74-5.4,12.15-9.88,7.54-4.49-4.62-3.7-26.88-.92-29.8.52-.56,1.29-.74,2.21-.68-4.2-2.97-7.9,3.64-10.09,14.72-.01.04-.01.08-.02.12-3.05,15.46-.1,24.16-.1,24.16Z"/>
              <path class="cls-16" d="M59.52,17.69S55.51.07,50.2,2.09s-6.21,16.71-6.21,16.71"/>
              <path class="cls-23" d="M42.6,40.39s.2.1.56.26c-.56-3.46-1.22-7.56-.76-13.97,1.07-14.99,4.02-24.67,8.21-25.4,3.75-.66,9.55,10.85,10.62,25.14.58,7.66-1.05,11.46-1.99,14.12,2.27-3.5,3.56-10.02,2.14-18.69-.36-2.22-.9-4.58-1.65-7.06-.45-1.55-1-3.14-1.64-4.8-1.79-4.65-3.56-7.4-5.27-8.59-4.2-2.97-7.9,3.64-10.09,14.72-.01.04-.01.08-.02.12-3.05,15.46-.1,24.16-.1,24.16Z"/>
              <ellipse class="cls-22" cx="53.93" cy="8.36" rx="2.15" ry="4.37" transform="translate(.29 18.43) rotate(-19.44)"/>
              <ellipse class="cls-24" cx="51.8" cy="13.06" rx="1.15" ry="1.67" transform="translate(-1.39 17.98) rotate(-19.44)"/>
              <ellipse class="cls-17" cx="43.78" cy="26.23" rx="2.16" ry="3.58"/>
              <ellipse class="cls-21" cx="46.82" cy="28.88" rx=".88" ry="1.4"/>
            </g>
            <g class="cls-54">
              <g>
                <g>
                  <g>
                    <path class="cls-32" d="M44.58,3.83c-.05,0-.1-.04-.12-.08-.02-.05-.01-.1.02-.14l1.15-1.45s.07-.05.11-.05c0,0,.01,0,.02,0,.05,0,.09.04.11.08l.65,1.59s.01.1-.02.13c-.03.04-.07.06-.11.06,0,0-1.81-.14-1.81-.14Z"/>
                    <path class="cls-33" d="M45.74,2.25l.65,1.59-1.8-.14,1.15-1.45M45.74,1.97c-.08,0-.16.04-.22.11l-1.15,1.45c-.06.08-.08.19-.04.28.04.09.13.16.23.17l1.8.14s.01,0,.02,0c.09,0,.17-.04.23-.11.06-.08.07-.18.03-.27l-.65-1.59c-.04-.09-.12-.16-.22-.17-.01,0-.03,0-.04,0h0Z"/>
                  </g>
                  <g class="cls-28">
                    <path class="cls-53" d="M45.69,2.57l.44,1.07-1.22-.1.78-.98M45.74,2.25l-1.15,1.45,1.8.14-.65-1.59h0Z"/>
                  </g>
                  <g>
                    <path class="cls-40" d="M55.36,7.5c-1.59-.13-2.22-1.27-2.24-1.32-.03-.05-.02-.11.02-.16l3.11-3.66s.07-.05.11-.05c.02,0,.04,0,.06.01.06.03.09.09.08.15l-.98,4.91c-.01.07-.07.11-.14.11,0,0,0,0-.01,0Z"/>
                    <path class="cls-33" d="M56.35,2.45h0M56.35,2.45l-.98,4.91c-1.53-.12-2.13-1.24-2.13-1.24l3.11-3.66M56.35,2.18s-.01,0-.02,0c-.05,0-.1.02-.14.05-.02.01-.03.03-.05.04,0,0,0,0,0,0l-3.11,3.66c-.07.09-.09.21-.03.31.03.05.7,1.25,2.36,1.39,0,0,.02,0,.02,0,.13,0,.25-.09.27-.22l.97-4.87s.01-.06.01-.09c0-.15-.12-.28-.28-.28h0ZM56.35,2.73h0,0Z"/>
                  </g>
                  <g class="cls-28">
                    <path class="cls-53" d="M56.06,3.05l-.82,4.13c-1.08-.14-1.62-.8-1.79-1.05l2.61-3.08M56.35,2.45h0,0ZM56.35,2.45l-3.11,3.66s.6,1.12,2.13,1.24l.98-4.91h0Z"/>
                  </g>
                  <g>
                    <path class="cls-41" d="M62.2,11.5c-.06,0-1.44-.17-1.67-1.32-.01-.07.03-.15.11-.16,0,0,1.98-.45,1.99-.45.04,0,.07.01.1.04.03.03.05.08.04.13l-.41,1.65c-.02.06-.07.11-.14.11,0,0,0,0-.01,0Z"/>
                    <path class="cls-33" d="M62.62,9.71l-.41,1.65s-1.33-.14-1.55-1.21l1.96-.44M62.62,9.43s-.04,0-.06,0l-1.96.44c-.15.03-.24.18-.21.33.25,1.25,1.73,1.42,1.79,1.43,0,0,.02,0,.03,0,.13,0,.24-.09.27-.21l.41-1.65c.02-.09,0-.19-.07-.26-.05-.05-.12-.08-.2-.08h0ZM62.62,9.99h0,0Z"/>
                  </g>
                  <g class="cls-28">
                    <path class="cls-53" d="M62.4,9.93l-.31,1.24c-.3-.06-1-.28-1.21-.89l1.52-.35M62.62,9.71l-1.96.44c.21,1.07,1.55,1.21,1.55,1.21l.41-1.65h0Z"/>
                  </g>
                </g>
                <g>
                  <path class="cls-42" d="M61.33,21.17c-3.38,0-7.76-1.19-12.03-3.27-7.89-3.86-13.04-9.63-11.47-12.86.32-.66.89-1.17,1.68-1.53.9-.41,2.07-.62,3.48-.62,3.38,0,7.76,1.19,12.03,3.27,7.18,3.51,12.22,8.68,11.72,12.03-.04.29-.12.58-.25.83-.68,1.38-2.51,2.14-5.17,2.14h0ZM44.28,5.13c-1.63,0-2.68.4-3.05,1.17-.2.4-.2.89,0,1.46.81,2.36,4.71,5.59,9.71,8.02,3.82,1.86,7.7,2.97,10.39,2.97,1.63,0,2.69-.4,3.06-1.16,1.02-2.12-3.33-6.37-9.71-9.48-3.83-1.86-7.72-2.98-10.4-2.98Z"/>
                  <path class="cls-33" d="M43,3.03c3.23,0,7.56,1.11,11.97,3.26,7.23,3.53,12.13,8.62,11.64,11.89-.03.28-.11.55-.23.79-.68,1.39-2.52,2.06-5.04,2.06-3.23,0-7.56-1.11-11.97-3.26-7.84-3.83-12.95-9.5-11.41-12.68.31-.64.87-1.13,1.62-1.46.89-.4,2.06-.6,3.43-.6M61.33,18.89c1.62,0,2.77-.4,3.18-1.24,1.06-2.19-3.31-6.52-9.77-9.67-3.99-1.95-7.85-2.99-10.46-2.99-1.62,0-2.77.4-3.17,1.24-1.07,2.18,3.3,6.52,9.77,9.67,3.99,1.95,7.84,2.99,10.45,2.99M43,2.75c-1.43,0-2.62.21-3.54.63-.82.37-1.41.9-1.75,1.59-1.63,3.36,3.44,9.09,11.54,13.05,4.29,2.09,8.7,3.28,12.09,3.28,2.75,0,4.58-.77,5.29-2.22.13-.27.22-.57.26-.88.52-3.46-4.44-8.58-11.8-12.17-4.29-2.09-8.69-3.28-12.09-3.28h0ZM61.33,18.61c-2.67,0-6.53-1.11-10.33-2.96-4.96-2.42-8.83-5.61-9.63-7.94-.18-.54-.19-.99,0-1.36.34-.7,1.38-1.09,2.92-1.09,2.67,0,6.53,1.11,10.34,2.96,6.2,3.02,10.61,7.28,9.64,9.3-.34.7-1.38,1.08-2.93,1.08h0Z"/>
                </g>
                <path class="cls-2" d="M66.61,18.17c-.03.28-.11.55-.23.79-1.55,3.16-9.16,2.63-17.01-1.19-7.84-3.83-12.95-9.5-11.41-12.68.31-.64.87-1.13,1.62-1.46-.55.91-.91,2.14-.65,3.69.68,4.02,7.29,8.76,15.32,11.42,6.45,2.14,10.59,1.24,12.37-.57Z"/>
                <g class="cls-28">
                  <path class="cls-53" d="M43.01,3.2c3.33,0,7.66,1.18,11.89,3.24,3.78,1.84,7.03,4.17,9.17,6.54,2.11,2.34,2.87,4.44,2.16,5.9-.62,1.27-2.36,1.97-4.89,1.97-3.33,0-7.66-1.18-11.89-3.24-3.78-1.84-7.03-4.17-9.17-6.54-2.11-2.34-2.87-4.44-2.16-5.9.62-1.27,2.36-1.97,4.89-1.97M61.33,19.05c1.75,0,2.91-.46,3.33-1.33,1.12-2.31-3.2-6.65-9.85-9.89-3.86-1.88-7.79-3-10.53-3-1.75,0-2.91.46-3.33,1.33-1.12,2.31,3.2,6.65,9.85,9.89,3.86,1.88,7.79,3,10.53,3M43.01,3.03c-2.52,0-4.37.68-5.04,2.07-1.55,3.17,3.56,8.84,11.41,12.67,4.4,2.15,8.74,3.26,11.96,3.26,2.52,0,4.37-.68,5.04-2.07,1.55-3.17-3.56-8.84-11.41-12.67-4.4-2.15-8.74-3.26-11.96-3.26h0ZM61.33,18.89c-2.62,0-6.47-1.04-10.45-2.99-6.46-3.15-10.84-7.48-9.77-9.67.41-.84,1.56-1.24,3.18-1.24,2.62,0,6.47,1.04,10.45,2.99,6.46,3.15,10.84,7.48,9.77,9.67-.41.84-1.56,1.24-3.18,1.24h0Z"/>
                </g>
                <g>
                  <path class="cls-50" d="M44.79,23.54s-.05,0-.07-.02c-.06-.03-.08-.1-.06-.17l2.65-7.79s.04-.07.07-.08c.01,0,.26-.12.64-.12s.74.1,1.1.3c1.22.68,1.07,1.67,1.07,1.71l-5.29,6.11s-.07.05-.1.05Z"/>
                  <path class="cls-33" d="M48.03,15.51c.28,0,.64.06,1.03.28,1.15.64,1,1.56,1,1.56l-5.26,6.04,2.65-7.79s.23-.1.59-.1M48.03,15.23c-.41,0-.67.12-.7.13-.07.03-.12.09-.15.16l-2.65,7.79c-.04.13,0,.26.12.33.04.03.09.04.14.04.08,0,.16-.03.21-.1l5.26-6.04s.06-.09.06-.14c0-.05.17-1.13-1.13-1.85-.38-.21-.77-.32-1.17-.32h0Z"/>
                </g>
                <path class="cls-44" d="M50.21,17.35l-5.41,6.05,2.64-7.93s.1-.04.26-.1c.32-.1.92-.19,1.54.16.33.18.56.4.7.63.2.31.27.62.28.86.02.2,0,.33,0,.33Z"/>
                <path class="cls-2" d="M50.21,17.35l-5.41,6.05,5.14-7.24c.2.31.27.62.28.86.02.2,0,.33,0,.33Z"/>
                <g>
                  <path class="cls-51" d="M57.65,22.27c-.06,0-.1-.04-.12-.09l-1-2.68c-.02-.06,0-.13.05-.16.43-.29.83-.44,1.2-.44.86,0,1.18.82,1.19.85.01.04.01.08,0,.11l-1.19,2.33s-.07.08-.12.08c0,0,0,0,0,0Z"/>
                  <path class="cls-33" d="M57.78,19.04c.78,0,1.06.76,1.06.76l-1.19,2.33-1-2.68c.45-.31.82-.42,1.12-.42M57.78,18.76c-.39,0-.82.16-1.27.47-.11.07-.15.21-.1.33l1,2.68c.04.1.13.17.25.18,0,0,.01,0,.02,0,.1,0,.2-.06.25-.15l1.19-2.33c.04-.07.04-.15.01-.22-.01-.04-.36-.94-1.32-.94h0Z"/>
                </g>
                <path class="cls-49" d="M58.94,19.7l-1.28,2.44-1.07-2.77c.08-.09.16-.17.23-.23.66-.6,1.16-.55,1.5-.29.21.14.37.36.47.53.1.18.14.32.14.32Z"/>
                <path class="cls-2" d="M58.94,19.7l-1.28,2.44.67-3.3c.21.14.37.36.47.53.1.18.14.32.14.32Z"/>
                <g>
                  <path class="cls-43" d="M65.07,19.59s-.09-.04-.11-.09c0-.02-.68-1.79,1.03-2.87.02-.01.05-.02.07-.02s.05,0,.07.02l6.56,3.93c.06.03.08.1.06.17-.02.06-.07.09-.13.09,0,0-7.56-1.23-7.56-1.23Z"/>
                  <path class="cls-33" d="M66.07,16.75l6.56,3.93-7.54-1.23s-.66-1.67.98-2.7M66.07,16.47c-.05,0-.1.01-.15.04-1.81,1.14-1.1,3.02-1.09,3.04.04.09.12.16.21.17l7.54,1.23s.03,0,.04,0c.12,0,.22-.07.26-.18.05-.13,0-.27-.12-.33l-6.56-3.93s-.09-.04-.14-.04h0Z"/>
                </g>
                <path class="cls-52" d="M72.64,20.68l-7.61-1.17s-.06-.08-.11-.21c-.08-.14-.17-.36-.2-.61-.08-.53.04-1.24.89-1.86.11-.08.23-.16.37-.23l6.64,4.08s.02.01.02.01Z"/>
                <path class="cls-2" d="M72.64,20.68l-7.61-1.17s-.06-.08-.11-.21c-.08-.14-.17-.36-.2-.61,1.55.41,7.48,1.88,7.9,1.98.01.01.02.01.02.01Z"/>
                <g>
                  <path class="cls-48" d="M39.21,12.82s-.09-.03-.12-.07c-.03-.05-.03-.11,0-.15,1.57-2.2,1.58-2.2,1.68-2.2.02,0,.07,0,.15,0,.34,0,1.43.13,1.5,1.85,0,.07-.05.13-.12.14,0,0-3.08.44-3.09.44Z"/>
                  <path class="cls-33" d="M40.92,10.52c.37,0,1.3.15,1.36,1.71l-3.07.44s1.53-2.15,1.56-2.15c0,0,.06,0,.15,0M40.92,10.25c-.08,0-.14,0-.17,0h0c-.16,0-.18.03-1.77,2.26-.06.09-.07.21-.01.31.05.08.14.13.24.13.01,0,.03,0,.04,0l3.07-.44c.14-.02.24-.14.24-.29-.07-1.84-1.27-1.98-1.64-1.98h0Z"/>
                </g>
                <path class="cls-46" d="M42.43,12.12s-.01.1-.01.16l-3.22.4.02-.02c.17-.26,1.56-2.24,1.6-2.24.01,0,.09-.01.21-.01.23,0,.61.04.91.29.3.23.52.67.48,1.43Z"/>
                <path class="cls-2" d="M41.96,10.7l-2.73,1.96c.17-.26,1.56-2.24,1.6-2.24.01,0,.09-.01.21-.01.23,0,.61.04.91.29Z"/>
                <g>
                  <path class="cls-45" d="M38.64,7.91s-.07-.01-.1-.04l-5.81-5.47s-.06-.12-.02-.17c.03-.04.07-.07.12-.07.02,0,.03,0,.05,0l7.23,2.49c.09.08.64.82,0,2.03-.64,1.21-1.43,1.23-1.47,1.23h0Z"/>
                  <path class="cls-33" d="M32.83,2.29l7.23,2.49s.53.69-.08,1.83c-.6,1.15-1.35,1.15-1.35,1.15l-5.81-5.48M32.83,2.02c-.1,0-.19.05-.24.13-.07.11-.05.26.05.35l5.81,5.48c.05.05.12.08.19.08h0s.91-.02,1.59-1.3c.68-1.29.08-2.1.05-2.13-.03-.04-.08-.08-.13-.09l-7.23-2.49s-.06-.02-.09-.02h0Z"/>
                </g>
                <path class="cls-47" d="M40.22,6.73c-.04.09-.09.17-.14.23-.37.57-.81.79-1.1.88-.18.04-.29.04-.29.04l-5.85-5.59,7.34,2.41s.04.07.11.19c.14.31.37,1.01-.07,1.84Z"/>
                <path class="cls-2" d="M40.07,6.97c-.37.57-.81.79-1.1.88-.18.04-.29.04-.29.04l-5.85-5.59,7.24,4.67Z"/>
                <path class="cls-30" d="M33.67,2.75l5.3,5.09c-.18.04-.29.04-.29.04l-5.85-5.59,7.34,2.41s.04.07.11.19l-6.62-2.14Z"/>
                <path class="cls-30" d="M42.43,12.12s-.01.1-.01.16l-3.22.4s1.58-2.26,1.63-2.26c.01,0,.09-.01.21-.01l-1.43,2.01,2.82-.29Z"/>
                <path class="cls-30" d="M50.21,17.35l-5.41,6.05,2.64-7.93s.1-.04.26-.1l-2.46,7.34,4.98-5.69c.02.2,0,.33,0,.33Z"/>
                <path class="cls-30" d="M58.94,19.7l-1.28,2.44-1.07-2.77c.08-.09.16-.17.23-.23l.82,2.41,1.15-2.16c.1.18.14.32.14.32Z"/>
                <path class="cls-30" d="M72.64,20.68l-7.61-1.17s-.06-.08-.11-.21l6.87.94-6.18-3.41c.11-.08.23-.16.37-.23l6.66,4.09Z"/>
              </g>
            </g>
          </g>
          <g>
            <g>
              <path class="cls-5" d="M20.03,40.39s-.2.1-.56.26c-2.36,1.04-11.56,4.77-14.98,1.28-.39-.39-.76-.86-1.09-1.39C1.12,37.03-.17,30.52,1.26,21.84c.36-2.22.9-4.58,1.65-7.06.45-1.55,1-3.14,1.64-4.8,1.79-4.65,3.56-7.4,5.27-8.59,4.2-2.97,7.9,3.64,10.09,14.72.01.04.01.08.02.12,3.05,15.46.1,24.16.1,24.16Z"/>
              <path class="cls-4" d="M11.81.67c3.36,0,6.26,6.15,8.09,15.43.01.04.01.08.02.12,3.05,15.46.1,24.16.1,24.16,0,0-.2.1-.56.26-1.64.72-6.58,2.74-10.59,2.74-1.77,0-3.35-.39-4.4-1.46-.39-.39-.76-.86-1.09-1.39C1.12,37.03-.17,30.52,1.26,21.84c.36-2.22.9-4.58,1.65-7.06.45-1.55,1-3.14,1.64-4.8,1.79-4.65,3.56-7.4,5.27-8.59.68-.48,1.35-.71,2-.71M11.81,0h0c-.8,0-1.6.28-2.39.84-1.88,1.32-3.74,4.31-5.51,8.9-.7,1.84-1.24,3.42-1.66,4.86-.74,2.46-1.3,4.86-1.67,7.14-1.29,7.86-.45,15.02,2.24,19.17.35.57.75,1.07,1.18,1.5,1.07,1.1,2.72,1.65,4.87,1.65,4.05,0,8.94-1.95,10.86-2.79.38-.16.59-.27.59-.27.16-.08.28-.22.34-.38.12-.36,2.97-9.05-.08-24.51-.01-.07-.02-.11-.03-.16-1.17-5.93-3.88-15.94-8.75-15.94h0Z"/>
            </g>
            <path class="cls-3" d="M19.93,16.22c-2.61.87-5.35,1.56-8.04,1.91-4.2.55-7.06-1.06-8.98-3.36.46-1.54,1.01-3.14,1.64-4.79C10.77-6.19,16.83.55,19.9,16.1c.01.04.01.08.03.12Z"/>
            <path class="cls-29" d="M20.03,40.39s-11.61,5.55-15.54,1.54C1.58,38.98-.39,31.84,1.26,21.84c-.03.78-.04,1.6-.04,2.48,0,9.74,5.4,12.15,9.88,7.54,4.49-4.62,3.7-26.88.92-29.8-.52-.56-1.29-.74-2.21-.68,4.2-2.97,7.9,3.64,10.09,14.72.01.04.01.08.02.12,3.05,15.46.1,24.16.1,24.16Z"/>
            <path class="cls-19" d="M3.11,17.69S7.12.07,12.43,2.09s6.21,16.71,6.21,16.71"/>
            <path class="cls-25" d="M20.03,40.39s-.2.1-.56.26c.56-3.46,1.22-7.56.76-13.97C19.17,11.67,16.22,2,12.02,1.26,8.27.61,2.47,12.11,1.4,26.41c-.58,7.66,1.05,11.46,1.99,14.12C1.12,37.03-.17,30.52,1.26,21.84c.36-2.22.9-4.58,1.65-7.06.45-1.55,1-3.14,1.64-4.8,1.79-4.65,3.56-7.4,5.27-8.59,4.2-2.97,7.9,3.64,10.09,14.72.01.04.01.08.02.12,3.05,15.46.1,24.16.1,24.16Z"/>
            <ellipse class="cls-26" cx="8.7" cy="8.36" rx="4.37" ry="2.15" transform="translate(-2.08 13.78) rotate(-70.56)"/>
            <ellipse class="cls-27" cx="10.84" cy="13.06" rx="1.67" ry="1.15" transform="translate(-5.09 18.93) rotate(-70.56)"/>
            <ellipse class="cls-18" cx="18.85" cy="26.23" rx="2.16" ry="3.58"/>
            <ellipse class="cls-20" cx="15.81" cy="28.88" rx=".88" ry="1.4"/>
          </g>
        </g>
      </g>
    </g>
  </g>
</svg>